<?xml version="1.0" encoding="UTF-8"?>
<!DOCTYPE svg PUBLIC "-//W3C//DTD SVG 1.1//EN" "http://www.w3.org/Graphics/SVG/1.1/DTD/svg11.dtd">
<svg xmlns="http://www.w3.org/2000/svg" version="1.1" width="1640px" height="624px" style="shape-rendering:geometricPrecision; text-rendering:geometricPrecision; image-rendering:optimizeQuality; fill-rule:evenodd; clip-rule:evenodd" xmlns:xlink="http://www.w3.org/1999/xlink">
<g><path style="opacity:1" fill="#5da0a2" d="M -0.5,-0.5 C 546.167,-0.5 1092.83,-0.5 1639.5,-0.5C 1639.5,207.5 1639.5,415.5 1639.5,623.5C 1092.83,623.5 546.167,623.5 -0.5,623.5C -0.5,415.5 -0.5,207.5 -0.5,-0.5 Z"/></g>
<g><path style="opacity:1" fill="#e7efef" d="M 737.5,167.5 C 792.167,167.5 846.833,167.5 901.5,167.5C 901.5,222.167 901.5,276.833 901.5,331.5C 847.166,331.667 792.832,331.5 738.5,331C 737.502,276.572 737.169,222.072 737.5,167.5 Z"/></g>
<g><path style="opacity:1" fill="#5da0a2" d="M 741.5,171.5 C 793.5,171.5 845.5,171.5 897.5,171.5C 897.5,223.167 897.5,274.833 897.5,326.5C 845.5,326.5 793.5,326.5 741.5,326.5C 741.5,274.833 741.5,223.167 741.5,171.5 Z"/></g>
<g><path style="opacity:1" fill="#ebf2f2" d="M 787.5,200.5 C 802.479,200.976 809.646,208.643 809,223.5C 807.989,224.337 806.822,224.67 805.5,224.5C 805.5,223.5 805.5,222.5 805.5,221.5C 800.258,221.977 795.258,221.144 790.5,219C 792.256,218.798 793.922,218.298 795.5,217.5C 794.754,216.264 794.421,214.93 794.5,213.5C 791.5,213.5 788.5,213.5 785.5,213.5C 785.5,217.833 785.5,222.167 785.5,226.5C 787.167,226.5 788.833,226.5 790.5,226.5C 790.5,227.5 790.5,228.5 790.5,229.5C 785.533,228.981 785.2,230.814 789.5,235C 791.787,234.042 793.453,234.876 794.5,237.5C 777.839,239.004 770.339,231.338 772,214.5C 774.852,207.142 780.019,202.475 787.5,200.5 Z"/></g>
<g><path style="opacity:1" fill="#6ea9ab" d="M 788.5,204.5 C 792.314,204.651 793.981,206.651 793.5,210.5C 787.013,211.627 785.347,209.627 788.5,204.5 Z"/></g>
<g><path style="opacity:1" fill="#72abad" d="M 795.5,204.5 C 798.166,205.842 800.499,207.675 802.5,210C 800.527,210.495 798.527,210.662 796.5,210.5C 796.167,208.5 795.833,206.5 795.5,204.5 Z"/></g>
<g><path style="opacity:1" fill="#6da9ab" d="M 782.5,205.5 C 783.376,205.369 784.043,205.702 784.5,206.5C 783.754,207.736 783.421,209.07 783.5,210.5C 781.473,210.662 779.473,210.495 777.5,210C 779.24,208.483 780.906,206.983 782.5,205.5 Z"/></g>
<g><path style="opacity:1" fill="#e6efef" d="M 857.5,208.5 C 859.446,209.254 860.279,210.588 860,212.5C 834.986,237.681 809.82,262.681 784.5,287.5C 783.112,286.409 782.612,285.076 783,283.5C 808.035,258.632 832.868,233.632 857.5,208.5 Z"/></g>
<g><path style="opacity:1" fill="#67a5a7" d="M 775.5,213.5 C 777.833,213.5 780.167,213.5 782.5,213.5C 782.5,215.167 782.5,216.833 782.5,218.5C 779.833,218.5 777.167,218.5 774.5,218.5C 774.366,216.708 774.699,215.042 775.5,213.5 Z"/></g>
<g><path style="opacity:1" fill="#6ea9ab" d="M 797.5,213.5 C 800.167,213.5 802.833,213.5 805.5,213.5C 805.421,214.93 805.754,216.264 806.5,217.5C 803.572,218.484 800.572,218.817 797.5,218.5C 797.5,216.833 797.5,215.167 797.5,213.5 Z"/></g>
<g><path style="opacity:1" fill="#65a4a6" d="M 774.5,221.5 C 777.167,221.5 779.833,221.5 782.5,221.5C 782.5,223.167 782.5,224.833 782.5,226.5C 780.167,226.5 777.833,226.5 775.5,226.5C 775.371,224.784 775.038,223.117 774.5,221.5 Z"/></g>
<g><path style="opacity:1" fill="#ecf2f2" d="M 792.5,223.5 C 797.586,224.685 802.586,226.185 807.5,228C 806.5,229 805.5,230 804.5,231C 808.674,233.085 809.174,235.585 806,238.5C 804.414,237.624 802.914,236.624 801.5,235.5C 800.38,236.833 799.047,237.333 797.5,237C 795.451,232.636 793.785,228.136 792.5,223.5 Z"/></g>
<g><path style="opacity:1" fill="#5fa1a3" d="M 778.5,230.5 C 779.919,229.549 781.585,229.216 783.5,229.5C 783.815,231.226 783.981,232.893 784,234.5C 782.008,233.335 780.175,232.002 778.5,230.5 Z"/></g>
<g><path style="opacity:1" fill="#ecf2f2" d="M 846.5,266.5 C 850.356,266.855 854.356,267.022 858.5,267C 860.329,267.273 861.829,268.107 863,269.5C 863.915,275.944 863.581,282.277 862,288.5C 858.38,290.183 854.546,290.85 850.5,290.5C 850.5,293.167 850.5,295.833 850.5,298.5C 849.167,298.5 847.833,298.5 846.5,298.5C 846.5,287.833 846.5,277.167 846.5,266.5 Z"/></g>
<g><path style="opacity:1" fill="#5da0a2" d="M 851.5,270.5 C 858.494,268.828 861.161,271.494 859.5,278.5C 859.473,281.089 859.139,283.589 858.5,286C 855.854,286.497 853.187,286.664 850.5,286.5C 850.218,281.073 850.551,275.74 851.5,270.5 Z"/></g>
<g><path style="opacity:1" fill="#eff4f4" d="M 703.5,391.5 C 709.75,391.835 716.083,392.002 722.5,392C 726.406,392.973 728.573,395.473 729,399.5C 729.667,406.167 729.667,412.833 729,419.5C 728.167,423 726,425.167 722.5,426C 718.179,426.499 713.846,426.666 709.5,426.5C 709.5,430.5 709.5,434.5 709.5,438.5C 707.5,438.5 705.5,438.5 703.5,438.5C 703.5,422.833 703.5,407.167 703.5,391.5 Z"/></g>
<g><path style="opacity:1" fill="#eff4f4" d="M 751.5,391.5 C 766.837,389.511 772.837,396.177 769.5,411.5C 763.5,411.5 757.5,411.5 751.5,411.5C 750.994,415.007 751.66,418.174 753.5,421C 758.155,421.499 762.821,421.666 767.5,421.5C 767.5,423.167 767.5,424.833 767.5,426.5C 762.156,426.666 756.823,426.499 751.5,426C 749,424.833 747.167,423 746,420.5C 745.333,412.5 745.333,404.5 746,396.5C 747.352,394.251 749.185,392.584 751.5,391.5 Z"/></g>
<g><path style="opacity:1" fill="#ecf2f2" d="M 783.5,392.5 C 785.693,391.203 788.027,391.203 790.5,392.5C 793.432,401.464 796.266,410.464 799,419.5C 801.817,410.23 804.317,400.896 806.5,391.5C 808.5,391.5 810.5,391.5 812.5,391.5C 809.134,407.065 804.468,422.232 798.5,437C 795.607,438.149 792.607,438.649 789.5,438.5C 789.5,436.833 789.5,435.167 789.5,433.5C 794.027,434.474 796.36,432.641 796.5,428C 792.049,416.14 787.715,404.307 783.5,392.5 Z"/></g>
<g><path style="opacity:1" fill="#ebf2f2" d="M 824.5,391.5 C 826.766,391.141 828.599,391.808 830,393.5C 834.14,390.608 837.974,390.942 841.5,394.5C 845.93,390.646 850.43,390.646 855,394.5C 856.453,405.063 856.953,415.73 856.5,426.5C 854.5,426.5 852.5,426.5 850.5,426.5C 850.666,416.828 850.5,407.161 850,397.5C 847.67,395.968 845.67,396.302 844,398.5C 843.5,407.827 843.334,417.161 843.5,426.5C 841.5,426.5 839.5,426.5 837.5,426.5C 837.666,417.161 837.5,407.827 837,398.5C 835,395.833 833,395.833 831,398.5C 830.5,407.827 830.334,417.161 830.5,426.5C 828.5,426.5 826.5,426.5 824.5,426.5C 824.5,414.833 824.5,403.167 824.5,391.5 Z"/></g>
<g><path style="opacity:1" fill="#ecf2f2" d="M 869.5,391.5 C 874.844,391.334 880.177,391.501 885.5,392C 889.395,392.933 891.562,395.433 892,399.5C 892.169,406.524 892.669,413.524 893.5,420.5C 895.283,422.023 895.949,424.023 895.5,426.5C 892.635,426.945 890.135,426.278 888,424.5C 887.5,425 887,425.5 886.5,426C 868.717,429.397 863.384,422.897 870.5,406.5C 875.638,404.667 880.972,404 886.5,404.5C 887.041,401.348 886.041,398.848 883.5,397C 878.845,396.501 874.179,396.334 869.5,396.5C 869.5,394.833 869.5,393.167 869.5,391.5 Z"/></g>
<g><path style="opacity:1" fill="#eef4f4" d="M 909.5,391.5 C 915.75,391.835 922.083,392.002 928.5,392C 932.395,392.933 934.562,395.433 935,399.5C 935.5,408.494 935.666,417.494 935.5,426.5C 933.5,426.5 931.5,426.5 929.5,426.5C 929.832,417.143 929.498,407.81 928.5,398.5C 926.715,397.337 924.715,396.67 922.5,396.5C 919.989,396.288 917.822,396.955 916,398.5C 915.5,407.827 915.334,417.161 915.5,426.5C 913.5,426.5 911.5,426.5 909.5,426.5C 909.5,414.833 909.5,403.167 909.5,391.5 Z"/></g>
<g><path style="opacity:1" fill="#62a3a5" d="M 711.5,396.5 C 721.587,394.723 725.587,398.89 723.5,409C 725.078,419.916 720.411,424.083 709.5,421.5C 709.334,413.826 709.5,406.159 710,398.5C 710.717,397.956 711.217,397.289 711.5,396.5 Z"/></g>
<g><path style="opacity:1" fill="#61a2a4" d="M 763.5,399.5 C 763.5,401.5 763.5,403.5 763.5,405.5C 759.5,405.5 755.5,405.5 751.5,405.5C 751.5,403.5 751.5,401.5 751.5,399.5C 752.692,397.078 754.692,396.078 757.5,396.5C 760.393,396.069 762.393,397.069 763.5,399.5 Z"/></g>
<g><path style="opacity:1" fill="#96c0c2" d="M 751.5,399.5 C 751.5,401.5 751.5,403.5 751.5,405.5C 755.5,405.5 759.5,405.5 763.5,405.5C 763.5,403.5 763.5,401.5 763.5,399.5C 764.468,401.607 764.802,403.941 764.5,406.5C 759.833,406.5 755.167,406.5 750.5,406.5C 750.198,403.941 750.532,401.607 751.5,399.5 Z"/></g>
<g><path style="opacity:1" fill="#61a2a4" d="M 875.5,410.5 C 878.833,410.5 882.167,410.5 885.5,410.5C 885.5,413.5 885.5,416.5 885.5,419.5C 884.129,420.787 882.295,421.453 880,421.5C 875.073,422.726 872.906,420.892 873.5,416C 873.667,414.5 873.833,413 874,411.5C 874.383,410.944 874.883,410.611 875.5,410.5 Z"/></g>
<g><path style="opacity:1" fill="#8bbabc" d="M 875.5,410.5 C 878.962,409.518 882.629,409.185 886.5,409.5C 886.813,413.042 886.479,416.375 885.5,419.5C 885.5,416.5 885.5,413.5 885.5,410.5C 882.167,410.5 878.833,410.5 875.5,410.5 Z"/></g>
</svg>
