<?xml version="1.0" encoding="UTF-8"?>
<!DOCTYPE svg PUBLIC "-//W3C//DTD SVG 1.1//EN" "http://www.w3.org/Graphics/SVG/1.1/DTD/svg11.dtd">
<svg xmlns="http://www.w3.org/2000/svg" version="1.1" width="1200px" height="1200px" style="shape-rendering:geometricPrecision; text-rendering:geometricPrecision; image-rendering:optimizeQuality; fill-rule:evenodd; clip-rule:evenodd" xmlns:xlink="http://www.w3.org/1999/xlink">
<g><path style="opacity:1" fill="#5da0a2" d="M -0.5,-0.5 C 399.5,-0.5 799.5,-0.5 1199.5,-0.5C 1199.5,399.5 1199.5,799.5 1199.5,1199.5C 799.5,1199.5 399.5,1199.5 -0.5,1199.5C -0.5,799.5 -0.5,399.5 -0.5,-0.5 Z"/></g>
<g><path style="opacity:1" fill="#ebf2f2" d="M 442.5,321.5 C 547.404,321.168 652.237,321.501 757,322.5C 757.832,427.403 757.665,532.236 756.5,637C 651.597,637.832 546.764,637.665 442,636.5C 441.169,531.43 441.336,426.43 442.5,321.5 Z"/></g>
<g><path style="opacity:1" fill="#5da0a2" d="M 449.5,329.5 C 549.5,329.5 649.5,329.5 749.5,329.5C 749.5,429.5 749.5,529.5 749.5,629.5C 649.5,629.5 549.5,629.5 449.5,629.5C 449.5,529.5 449.5,429.5 449.5,329.5 Z"/></g>
<g><path style="opacity:1" fill="#eef3f3" d="M 540.5,421.5 C 544.298,420.517 548.298,420.183 552.5,420.5C 552.806,417.615 552.473,414.948 551.5,412.5C 551.5,412.167 551.5,411.833 551.5,411.5C 548.854,410.836 546.021,410.502 543,410.5C 539.748,410.519 536.915,411.186 534.5,412.5C 534.5,420.167 534.5,427.833 534.5,435.5C 539.355,434.517 542.688,436.183 544.5,440.5C 541.914,441.48 539.247,441.813 536.5,441.5C 537.315,445.446 538.815,449.113 541,452.5C 542.049,453.517 543.216,453.684 544.5,453C 545.667,451.833 546.833,450.667 548,449.5C 549.167,452.5 550.333,455.5 551.5,458.5C 524.433,461.27 509.433,449.103 506.5,422C 508.934,401.066 520.6,389.233 541.5,386.5C 564.048,387.884 576.714,399.718 579.5,422C 579.617,425.67 578.951,429.17 577.5,432.5C 576.264,431.754 574.93,431.421 573.5,431.5C 573.5,429.833 573.5,428.167 573.5,426.5C 567.824,426.666 562.157,426.499 556.5,426C 551.229,424.193 545.896,422.693 540.5,421.5 Z"/></g>
<g><path style="opacity:1" fill="#64a4a6" d="M 549.5,403.5 C 545.366,404.485 541.032,404.818 536.5,404.5C 536.841,399.482 539.008,395.482 543,392.5C 547.199,394.888 549.365,398.555 549.5,403.5 Z"/></g>
<g><path style="opacity:1" fill="#65a4a6" d="M 531.5,394.5 C 532.376,394.369 533.043,394.702 533.5,395.5C 531.506,398.15 530.506,401.15 530.5,404.5C 526.818,404.665 523.152,404.499 519.5,404C 523.118,400.2 527.118,397.033 531.5,394.5 Z"/></g>
<g><path style="opacity:1" fill="#62a3a4" d="M 553.5,394.5 C 558.483,396.67 562.817,399.837 566.5,404C 563.118,404.824 559.784,404.657 556.5,403.5C 555.199,400.573 554.199,397.573 553.5,394.5 Z"/></g>
<g><path style="opacity:1" fill="#edf3f3" d="M 672.5,402.5 C 675.648,403.474 677.481,405.474 678,408.5C 629.833,456.667 581.667,504.833 533.5,553C 531.255,552.805 529.422,551.638 528,549.5C 527.333,548.833 527.333,548.167 528,547.5C 576.368,499.299 624.535,450.965 672.5,402.5 Z"/></g>
<g><path style="opacity:1" fill="#afd0d0" d="M 549.5,403.5 C 550.043,403.56 550.376,403.893 550.5,404.5C 545.682,405.812 541.015,405.812 536.5,404.5C 541.032,404.818 545.366,404.485 549.5,403.5 Z"/></g>
<g><path style="opacity:1" fill="#afd0d0" d="M 551.5,411.5 C 545.741,411.214 540.075,411.548 534.5,412.5C 536.915,411.186 539.748,410.519 543,410.5C 546.021,410.502 548.854,410.836 551.5,411.5 Z"/></g>
<g><path style="opacity:1" fill="#5da0a2" d="M 528.5,415.5 C 527.566,416.568 527.232,417.901 527.5,419.5C 522.381,420.103 517.715,419.436 513.5,417.5C 513.869,415.559 514.536,413.725 515.5,412C 519.821,411.501 524.154,411.334 528.5,411.5C 528.5,412.833 528.5,414.167 528.5,415.5 Z"/></g>
<g><path style="opacity:1" fill="#5ea0a2" d="M 572.5,415.5 C 572.5,416.833 572.5,418.167 572.5,419.5C 567.833,419.5 563.167,419.5 558.5,419.5C 558.708,417.08 558.374,414.747 557.5,412.5C 562.131,411.338 566.798,411.172 571.5,412C 572.337,413.011 572.67,414.178 572.5,415.5 Z"/></g>
<g><path style="opacity:1" fill="#84b7b8" d="M 572.5,415.5 C 573.451,416.919 573.784,418.585 573.5,420.5C 568.305,420.821 563.305,420.487 558.5,419.5C 563.167,419.5 567.833,419.5 572.5,419.5C 572.5,418.167 572.5,416.833 572.5,415.5 Z"/></g>
<g><path style="opacity:1" fill="#88b9ba" d="M 528.5,415.5 C 528.5,417.167 528.5,418.833 528.5,420.5C 523.167,420.5 517.833,420.5 512.5,420.5C 512.263,419.209 512.596,418.209 513.5,417.5C 517.715,419.436 522.381,420.103 527.5,419.5C 527.232,417.901 527.566,416.568 528.5,415.5 Z"/></g>
<g><path style="opacity:1" fill="#8abbbc" d="M 551.5,412.5 C 552.473,414.948 552.806,417.615 552.5,420.5C 548.298,420.183 544.298,420.517 540.5,421.5C 539.244,421.539 538.244,421.039 537.5,420C 542.155,419.501 546.821,419.334 551.5,419.5C 551.5,417.167 551.5,414.833 551.5,412.5 Z"/></g>
<g><path style="opacity:1" fill="#5fa1a3" d="M 513.5,426.5 C 518.5,426.5 523.5,426.5 528.5,426.5C 528.5,429.5 528.5,432.5 528.5,435.5C 524.154,435.666 519.821,435.499 515.5,435C 514.009,432.379 513.342,429.545 513.5,426.5 Z"/></g>
<g><path style="opacity:1" fill="#eff4f4" d="M 546.5,429.5 C 555.886,432.144 565.219,434.978 574.5,438C 574.957,438.414 575.291,438.914 575.5,439.5C 573.5,440.833 571.833,442.5 570.5,444.5C 573.458,447.324 576.458,450.158 579.5,453C 578.024,455.643 576.024,457.81 573.5,459.5C 570.744,456.573 567.578,454.24 564,452.5C 562.176,454.802 560.342,457.135 558.5,459.5C 554.083,449.722 550.083,439.722 546.5,429.5 Z"/></g>
<g><path style="opacity:1" fill="#5fa1a3" d="M 519.5,442.5 C 522.962,441.518 526.629,441.185 530.5,441.5C 530.727,444.965 531.227,448.299 532,451.5C 527.139,449.473 522.972,446.473 519.5,442.5 Z"/></g>
<g><path style="opacity:1" fill="#eef3f3" d="M 650.5,513.5 C 653.394,513.042 655.894,513.709 658,515.5C 665.407,512.531 672.574,513.031 679.5,517C 681.317,518.8 682.484,520.966 683,523.5C 683.667,531.833 683.667,540.167 683,548.5C 681.833,553.667 678.667,556.833 673.5,558C 668.511,558.499 663.511,558.666 658.5,558.5C 658.5,563.5 658.5,568.5 658.5,573.5C 655.833,573.5 653.167,573.5 650.5,573.5C 650.5,553.5 650.5,533.5 650.5,513.5 Z"/></g>
<g><path style="opacity:1" fill="#5da0a2" d="M 660.5,520.5 C 664.514,520.334 668.514,520.501 672.5,521C 673.025,521.692 673.692,522.192 674.5,522.5C 675.665,531.147 675.832,539.814 675,548.5C 674.167,549.333 673.333,550.167 672.5,551C 667.845,551.499 663.179,551.666 658.5,551.5C 657.895,540.909 658.562,530.575 660.5,520.5 Z"/></g>
<g><path style="opacity:1" fill="#f3f6f6" d="M 377.5,752.5 C 381.167,752.5 384.833,752.5 388.5,752.5C 388.351,753.552 388.517,754.552 389,755.5C 392.557,753.05 396.557,752.05 401,752.5C 407.398,752.513 413.564,753.68 419.5,756C 422.807,758.778 424.974,762.278 426,766.5C 426.667,779.833 426.667,793.167 426,806.5C 423.53,815.96 417.363,820.46 407.5,820C 401.175,820.5 394.842,820.666 388.5,820.5C 388.5,828.167 388.5,835.833 388.5,843.5C 384.833,843.5 381.167,843.5 377.5,843.5C 377.5,813.167 377.5,782.833 377.5,752.5 Z"/></g>
<g><path style="opacity:1" fill="#f2f6f6" d="M 474.5,809.5 C 483.068,810.193 491.734,810.86 500.5,811.5C 500.5,814.5 500.5,817.5 500.5,820.5C 491.161,820.666 481.827,820.5 472.5,820C 465.185,818.684 460.352,814.517 458,807.5C 457.333,793.5 457.333,779.5 458,765.5C 458.996,759.841 462.162,756.007 467.5,754C 477.273,751.83 486.94,752.164 496.5,755C 500.381,757.928 502.881,761.761 504,766.5C 504.5,774.827 504.666,783.16 504.5,791.5C 492.5,791.5 480.5,791.5 468.5,791.5C 468.334,796.179 468.501,800.845 469,805.5C 470.451,807.464 472.284,808.797 474.5,809.5 Z"/></g>
<g><path style="opacity:1" fill="#f0f5f5" d="M 532.5,752.5 C 536.555,752.176 540.555,752.509 544.5,753.5C 550.154,771.782 555.654,790.115 561,808.5C 566.455,790.013 571.289,771.347 575.5,752.5C 579.555,752.176 583.555,752.509 587.5,753.5C 580.145,779.442 572.978,805.442 566,831.5C 561.807,842.199 553.973,846.199 542.5,843.5C 542.5,840.167 542.5,836.833 542.5,833.5C 552.221,834.783 556.887,830.45 556.5,820.5C 555.5,820.5 554.5,820.5 553.5,820.5C 546.896,797.689 539.896,775.022 532.5,752.5 Z"/></g>
<g><path style="opacity:1" fill="#eff4f4" d="M 608.5,752.5 C 611.833,752.5 615.167,752.5 618.5,752.5C 618.351,753.552 618.517,754.552 619,755.5C 621.479,753.083 624.479,752.083 628,752.5C 633.126,752.207 637.46,753.874 641,757.5C 649.495,750.864 657.995,750.864 666.5,757.5C 667.609,759.385 668.443,761.385 669,763.5C 669.5,782.497 669.667,801.497 669.5,820.5C 665.833,820.5 662.167,820.5 658.5,820.5C 658.667,802.164 658.5,783.83 658,765.5C 657.06,762.558 655.06,761.225 652,761.5C 648.059,761.636 645.726,763.636 645,767.5C 644.5,785.164 644.333,802.83 644.5,820.5C 640.833,820.5 637.167,820.5 633.5,820.5C 633.667,801.83 633.5,783.164 633,764.5C 628.594,760.577 624.261,760.577 620,764.5C 619.5,783.164 619.333,801.83 619.5,820.5C 615.833,820.5 612.167,820.5 608.5,820.5C 608.5,797.833 608.5,775.167 608.5,752.5 Z"/></g>
<g><path style="opacity:1" fill="#f1f5f5" d="M 708.5,778.5 C 714.833,778.5 721.167,778.5 727.5,778.5C 727.81,775.287 727.477,772.287 726.5,769.5C 726.16,766.325 724.493,764.159 721.5,763C 712.84,762.5 704.173,762.334 695.5,762.5C 695.5,759.167 695.5,755.833 695.5,752.5C 706.961,751.911 718.294,752.744 729.5,755C 734.436,757.697 737.27,761.864 738,767.5C 738.333,781.167 738.667,794.833 739,808.5C 740.789,810.229 742.956,810.896 745.5,810.5C 745.5,813.833 745.5,817.167 745.5,820.5C 739.676,821.412 734.51,820.078 730,816.5C 728.421,818.041 726.587,819.208 724.5,820C 717.5,820.667 710.5,820.667 703.5,820C 696.455,819.289 692.289,815.455 691,808.5C 690.182,802.098 690.516,795.765 692,789.5C 694.949,782.058 700.449,778.391 708.5,778.5 Z"/></g>
<g><path style="opacity:1" fill="#f3f6f6" d="M 772.5,752.5 C 776.167,752.5 779.833,752.5 783.5,752.5C 783.351,753.552 783.517,754.552 784,755.5C 785.171,754.107 786.671,753.273 788.5,753C 797.455,751.766 806.122,752.766 814.5,756C 817.807,758.778 819.974,762.278 821,766.5C 821.5,784.497 821.667,802.497 821.5,820.5C 817.833,820.5 814.167,820.5 810.5,820.5C 810.667,803.163 810.5,785.83 810,768.5C 807.134,763.155 802.634,761.155 796.5,762.5C 791.153,761.409 786.987,763.076 784,767.5C 783.5,785.164 783.333,802.83 783.5,820.5C 779.833,820.5 776.167,820.5 772.5,820.5C 772.5,797.833 772.5,775.167 772.5,752.5 Z"/></g>
<g><path style="opacity:1" fill="#5fa1a3" d="M 409.5,809.5 C 402.833,809.5 396.167,809.5 389.5,809.5C 389.5,795.5 389.5,781.5 389.5,767.5C 392.178,763.044 396.178,761.377 401.5,762.5C 407.596,761.137 412.096,763.137 415,768.5C 415.667,780.5 415.667,792.5 415,804.5C 413.945,807.056 412.112,808.723 409.5,809.5 Z"/></g>
<g><path style="opacity:1" fill="#5fa1a3" d="M 493.5,780.5 C 485.5,780.5 477.5,780.5 469.5,780.5C 469.5,776.167 469.5,771.833 469.5,767.5C 470.023,765.292 471.356,763.792 473.5,763C 488.828,759.168 495.495,765.001 493.5,780.5 Z"/></g>
<g><path style="opacity:1" fill="#82b6b7" d="M 389.5,767.5 C 389.5,781.5 389.5,795.5 389.5,809.5C 396.167,809.5 402.833,809.5 409.5,809.5C 402.687,810.491 395.687,810.825 388.5,810.5C 388.171,795.99 388.504,781.657 389.5,767.5 Z"/></g>
<g><path style="opacity:1" fill="#82b6b7" d="M 469.5,767.5 C 469.5,771.833 469.5,776.167 469.5,780.5C 477.5,780.5 485.5,780.5 493.5,780.5C 485.35,781.493 477.017,781.826 468.5,781.5C 468.181,776.637 468.514,771.97 469.5,767.5 Z"/></g>
<g><path style="opacity:1" fill="#8cbbbc" d="M 726.5,769.5 C 727.477,772.287 727.81,775.287 727.5,778.5C 721.167,778.5 714.833,778.5 708.5,778.5C 714.31,777.51 720.31,777.177 726.5,777.5C 726.5,774.833 726.5,772.167 726.5,769.5 Z"/></g>
<g><path style="opacity:1" fill="#5ea1a3" d="M 706.5,788.5 C 713.167,788.5 719.833,788.5 726.5,788.5C 726.925,795.615 726.425,802.615 725,809.5C 718.582,810.643 712.082,810.81 705.5,810C 704.667,809.167 703.833,808.333 703,807.5C 702.333,802.5 702.333,797.5 703,792.5C 704.376,791.295 705.542,789.962 706.5,788.5 Z"/></g>
<g><path style="opacity:1" fill="#85b7b8" d="M 474.5,809.5 C 483.565,808.864 492.231,809.53 500.5,811.5C 491.734,810.86 483.068,810.193 474.5,809.5 Z"/></g>
</svg>
