<?xml version="1.0" encoding="UTF-8"?>
<!DOCTYPE svg PUBLIC "-//W3C//DTD SVG 1.1//EN" "http://www.w3.org/Graphics/SVG/1.1/DTD/svg11.dtd">
<svg xmlns="http://www.w3.org/2000/svg" version="1.1" width="1536px" height="768px" style="shape-rendering:geometricPrecision; text-rendering:geometricPrecision; image-rendering:optimizeQuality; fill-rule:evenodd; clip-rule:evenodd" xmlns:xlink="http://www.w3.org/1999/xlink">
<g><path style="opacity:1" fill="#5da0a2" d="M -0.5,122.5 C 511.5,122.5 1023.5,122.5 1535.5,122.5C 1535.5,296.5 1535.5,470.5 1535.5,644.5C 1023.5,644.5 511.5,644.5 -0.5,644.5C -0.5,470.5 -0.5,296.5 -0.5,122.5 Z"/></g>
<g><path style="opacity:1" fill="#f0f6f5" d="M 699.5,263.5 C 744.833,263.5 790.167,263.5 835.5,263.5C 835.5,308.833 835.5,354.167 835.5,399.5C 790.167,399.5 744.833,399.5 699.5,399.5C 699.5,354.167 699.5,308.833 699.5,263.5 Z"/></g>
<g><path style="opacity:1" fill="#5da0a2" d="M 702.5,266.5 C 745.833,266.5 789.167,266.5 832.5,266.5C 832.5,309.833 832.5,353.167 832.5,396.5C 789.167,396.5 745.833,396.5 702.5,396.5C 702.5,353.167 702.5,309.833 702.5,266.5 Z"/></g>
<g><path style="opacity:1" fill="#f0f6f5" d="M 739.5,291.5 C 753.187,290.848 759.187,297.182 757.5,310.5C 752.588,308.918 747.588,307.418 742.5,306C 744.256,305.798 745.922,305.298 747.5,304.5C 745.582,301.894 742.916,300.894 739.5,301.5C 738.895,305.018 738.895,308.685 739.5,312.5C 743.806,313.066 744.139,313.732 740.5,314.5C 740,318.493 741.5,320.16 745,319.5C 745.374,320.416 745.874,321.25 746.5,322C 735.438,322.971 729.104,317.971 727.5,307C 728.346,299.328 732.346,294.162 739.5,291.5 Z"/></g>
<g><path style="opacity:1" fill="#74acae" d="M 742.5,293.5 C 748.758,298.97 747.758,300.803 739.5,299C 740.223,296.982 741.223,295.148 742.5,293.5 Z"/></g>
<g><path style="opacity:1" fill="#79b0b2" d="M 737.5,294.5 C 738.705,295.672 738.705,297.005 737.5,298.5C 735.926,299.631 734.259,299.798 732.5,299C 734.063,297.264 735.73,295.764 737.5,294.5 Z"/></g>
<g><path style="opacity:1" fill="#75adaf" d="M 747.5,294.5 C 749.905,295.398 751.905,296.898 753.5,299C 751.866,299.494 750.199,299.66 748.5,299.5C 748.371,297.784 748.038,296.117 747.5,294.5 Z"/></g>
<g><path style="opacity:1" fill="#f0f6f5" d="M 798.5,298.5 C 799.995,298.415 800.995,299.081 801.5,300.5C 780.849,321.597 760.016,342.597 739,363.5C 738.167,362.667 737.333,361.833 736.5,361C 757.368,340.299 778.035,319.465 798.5,298.5 Z"/></g>
<g><path style="opacity:1" fill="#6aa6a9" d="M 730.5,301.5 C 732.5,301.5 734.5,301.5 736.5,301.5C 736.5,302.833 736.5,304.167 736.5,305.5C 734.143,305.663 731.81,305.497 729.5,305C 730.337,303.989 730.67,302.822 730.5,301.5 Z"/></g>
<g><path style="opacity:1" fill="#6fa9ac" d="M 749.5,301.5 C 752.604,300.971 754.937,301.971 756.5,304.5C 751.836,307.995 749.503,306.995 749.5,301.5 Z"/></g>
<g><path style="opacity:1" fill="#6aa7a9" d="M 729.5,309.5 C 731.607,308.532 733.941,308.198 736.5,308.5C 736.5,309.833 736.5,311.167 736.5,312.5C 734.5,312.5 732.5,312.5 730.5,312.5C 730.737,311.209 730.404,310.209 729.5,309.5 Z"/></g>
<g><path style="opacity:1" fill="#f0f6f5" d="M 745.5,310.5 C 749.57,311.356 753.57,312.523 757.5,314C 756.328,314.419 755.328,315.085 754.5,316C 755.833,317.333 757.167,318.667 758.5,320C 757.667,320.833 756.833,321.667 756,322.5C 753.768,318.675 751.768,318.675 750,322.5C 747.998,318.658 746.498,314.658 745.5,310.5 Z"/></g>
<g><path style="opacity:1" fill="#75adaf" d="M 733.5,314.5 C 737.323,314.167 738.823,315.834 738,319.5C 735.585,318.589 734.085,316.922 733.5,314.5 Z"/></g>
<g><path style="opacity:1" fill="#f0f6f5" d="M 790.5,345.5 C 793.731,345.815 797.064,345.982 800.5,346C 801.416,346.374 802.25,346.874 803,347.5C 803.273,349.101 803.773,350.601 804.5,352C 803.679,355.343 803.179,359.176 803,363.5C 800.07,365.066 796.903,365.9 793.5,366C 792.167,368 792.167,370 793.5,372C 792.167,372.667 790.833,372.667 789.5,372C 790.133,363.226 790.466,354.393 790.5,345.5 Z"/></g>
<g><path style="opacity:1" fill="#64a4a6" d="M 793.5,348.5 C 796.681,348.002 799.347,348.835 801.5,351C 800.929,354.548 800.596,358.381 800.5,362.5C 797.813,362.664 795.146,362.497 792.5,362C 792.64,357.767 792.973,353.267 793.5,348.5 Z"/></g>
<g><path style="opacity:1" fill="#f0f6f5" d="M 669.5,450.5 C 674.419,450.938 679.419,451.105 684.5,451C 686.848,451.346 688.681,452.513 690,454.5C 690.928,461.94 690.594,469.274 689,476.5C 687.829,477.893 686.329,478.727 684.5,479C 681.183,479.498 677.85,479.665 674.5,479.5C 674.5,482.833 674.5,486.167 674.5,489.5C 672.833,489.5 671.167,489.5 669.5,489.5C 669.5,476.5 669.5,463.5 669.5,450.5 Z"/></g>
<g><path style="opacity:1" fill="#f0f6f5" d="M 711.5,450.5 C 723.501,449.175 728.167,454.509 725.5,466.5C 720.238,466.195 715.072,466.529 710,467.5C 709.161,470.14 709.661,472.473 711.5,474.5C 715.429,475.433 719.429,475.766 723.5,475.5C 723.5,476.833 723.5,478.167 723.5,479.5C 718.401,479.825 713.401,479.325 708.5,478C 707.299,477.097 706.465,475.931 706,474.5C 705.333,467.833 705.333,461.167 706,454.5C 707.5,452.531 709.333,451.198 711.5,450.5 Z"/></g>
<g><path style="opacity:1" fill="#f0f6f5" d="M 738.5,450.5 C 740.288,450.215 741.955,450.548 743.5,451.5C 745.901,459.203 748.401,466.87 751,474.5C 753,467.167 755,459.833 757,452.5C 758.418,450.637 760.251,450.137 762.5,451C 758.745,463.184 754.912,475.351 751,487.5C 748.435,489.179 745.602,489.846 742.5,489.5C 742.5,488.167 742.5,486.833 742.5,485.5C 746.427,485.744 748.76,483.91 749.5,480C 744.97,470.588 741.304,460.754 738.5,450.5 Z"/></g>
<g><path style="opacity:1" fill="#f0f6f5" d="M 771.5,450.5 C 774.238,451.237 776.905,451.237 779.5,450.5C 781.697,450.848 783.53,451.848 785,453.5C 788.397,450.019 792.064,449.686 796,452.5C 797.443,461.392 797.943,470.392 797.5,479.5C 796.167,479.5 794.833,479.5 793.5,479.5C 793.666,472.159 793.5,464.826 793,457.5C 791.522,454.007 789.522,453.674 787,456.5C 786.5,464.159 786.334,471.826 786.5,479.5C 785.167,479.5 783.833,479.5 782.5,479.5C 782.666,472.159 782.5,464.826 782,457.5C 780.522,454.007 778.522,453.674 776,456.5C 775.5,464.159 775.334,471.826 775.5,479.5C 774.167,479.5 772.833,479.5 771.5,479.5C 771.5,469.833 771.5,460.167 771.5,450.5 Z"/></g>
<g><path style="opacity:1" fill="#f0f6f5" d="M 809.5,451.5 C 813.311,450.355 817.311,450.188 821.5,451C 825.616,452.116 827.949,454.782 828.5,459C 828.167,463.333 827.833,467.667 827.5,472C 828.833,474 830.167,476 831.5,478C 829.191,480.051 827.024,479.884 825,477.5C 820.275,479.954 815.442,480.121 810.5,478C 807.106,473.895 806.606,469.395 809,464.5C 810.171,463.107 811.671,462.273 813.5,462C 816.817,461.502 820.15,461.335 823.5,461.5C 823.739,459.533 823.406,457.699 822.5,456C 818.241,454.958 813.907,454.125 809.5,453.5C 810.55,452.571 810.55,451.905 809.5,451.5 Z"/></g>
<g><path style="opacity:1" fill="#f0f6f5" d="M 843.5,450.5 C 848.419,450.938 853.419,451.105 858.5,451C 860.329,451.273 861.829,452.107 863,453.5C 864.441,462.058 864.941,470.724 864.5,479.5C 863.167,479.5 861.833,479.5 860.5,479.5C 860.666,472.159 860.5,464.826 860,457.5C 858.704,455.185 856.704,454.185 854,454.5C 851.966,454.354 850.299,455.02 849,456.5C 848.5,464.159 848.334,471.826 848.5,479.5C 846.833,479.5 845.167,479.5 843.5,479.5C 843.5,469.833 843.5,460.167 843.5,450.5 Z"/></g>
<g><path style="opacity:1" fill="#64a4a6" d="M 676.5,454.5 C 679.807,454.063 682.807,454.73 685.5,456.5C 686.618,461.78 686.784,467.113 686,472.5C 685.5,473.667 684.667,474.5 683.5,475C 680.518,475.498 677.518,475.665 674.5,475.5C 674.334,469.158 674.5,462.825 675,456.5C 675.717,455.956 676.217,455.289 676.5,454.5 Z"/></g>
<g><path style="opacity:1" fill="#65a4a6" d="M 711.5,454.5 C 718.33,453 721.33,455.667 720.5,462.5C 716.833,462.5 713.167,462.5 709.5,462.5C 709.283,459.579 709.949,456.913 711.5,454.5 Z"/></g>
<g><path style="opacity:1" fill="#94c0c1" d="M 814.5,466.5 C 817.287,465.523 820.287,465.19 823.5,465.5C 823.81,468.713 823.477,471.713 822.5,474.5C 822.5,471.833 822.5,469.167 822.5,466.5C 819.833,466.5 817.167,466.5 814.5,466.5 Z"/></g>
<g><path style="opacity:1" fill="#62a3a5" d="M 814.5,466.5 C 817.167,466.5 819.833,466.5 822.5,466.5C 822.5,469.167 822.5,471.833 822.5,474.5C 819.696,475.638 816.696,475.805 813.5,475C 812.892,473.769 812.559,472.436 812.5,471C 812.307,468.992 812.974,467.492 814.5,466.5 Z"/></g>
</svg>
