<?xml version="1.0" encoding="UTF-8"?>
<!DOCTYPE svg PUBLIC "-//W3C//DTD SVG 1.1//EN" "http://www.w3.org/Graphics/SVG/1.1/DTD/svg11.dtd">
<svg xmlns="http://www.w3.org/2000/svg" version="1.1" width="1200px" height="1200px" style="shape-rendering:geometricPrecision; text-rendering:geometricPrecision; image-rendering:optimizeQuality; fill-rule:evenodd; clip-rule:evenodd" xmlns:xlink="http://www.w3.org/1999/xlink">
<g><path style="opacity:0.937" fill="#f4f7f7" d="M 441.5,321.5 C 546.833,321.5 652.167,321.5 757.5,321.5C 757.5,426.833 757.5,532.167 757.5,637.5C 652.167,637.5 546.833,637.5 441.5,637.5C 441.5,532.167 441.5,426.833 441.5,321.5 Z M 449.5,329.5 C 549.5,329.5 649.5,329.5 749.5,329.5C 749.5,429.5 749.5,529.5 749.5,629.5C 649.5,629.5 549.5,629.5 449.5,629.5C 449.5,529.5 449.5,429.5 449.5,329.5 Z M 541.5,393.5 C 543.39,393.297 544.89,393.963 546,395.5C 547.741,398.309 548.908,401.309 549.5,404.5C 545.154,404.666 540.821,404.499 536.5,404C 538.036,400.428 539.703,396.928 541.5,393.5 Z M 554.5,395.5 C 558.898,397.725 562.898,400.559 566.5,404C 563.183,404.498 559.85,404.665 556.5,404.5C 555.833,401.5 555.167,398.5 554.5,395.5 Z M 531.5,396.5 C 531.253,403.653 527.587,406.153 520.5,404C 523.274,400.038 526.941,397.538 531.5,396.5 Z M 515.5,411.5 C 519.833,411.5 524.167,411.5 528.5,411.5C 528.167,414.167 527.833,416.833 527.5,419.5C 522.833,419.5 518.167,419.5 513.5,419.5C 513.963,416.779 514.629,414.112 515.5,411.5 Z M 558.5,411.5 C 562.833,411.5 567.167,411.5 571.5,411.5C 572.092,414.127 572.425,416.794 572.5,419.5C 567.833,419.5 563.167,419.5 558.5,419.5C 558.5,416.833 558.5,414.167 558.5,411.5 Z M 513.5,426.5 C 518.167,426.5 522.833,426.5 527.5,426.5C 527.704,429.518 528.037,432.518 528.5,435.5C 524.116,435.826 519.783,435.492 515.5,434.5C 514.518,431.904 513.851,429.238 513.5,426.5 Z M 520.5,441.5 C 523.572,441.183 526.572,441.516 529.5,442.5C 530.123,445.167 531.123,447.667 532.5,450C 529.261,449.554 526.261,448.221 523.5,446C 521.859,444.871 520.859,443.371 520.5,441.5 Z M 661.5,520.5 C 665.911,520.021 670.078,520.688 674,522.5C 675.604,530.73 675.937,539.063 675,547.5C 674.5,549.333 673.333,550.5 671.5,551C 667.179,551.499 662.846,551.666 658.5,551.5C 658.334,542.161 658.5,532.827 659,523.5C 659.698,522.309 660.531,521.309 661.5,520.5 Z"/></g>
<g><path style="opacity:0.909" fill="#f4f7f7" d="M 535.5,386.5 C 566.895,385.894 581.561,401.227 579.5,432.5C 577.409,432.682 575.409,432.348 573.5,431.5C 572.253,429.994 572.253,428.494 573.5,427C 560.783,428.04 548.783,425.707 537.5,420C 542.155,419.501 546.821,419.334 551.5,419.5C 551.5,416.833 551.5,414.167 551.5,411.5C 546.167,411.5 540.833,411.5 535.5,411.5C 534.167,419.5 534.167,427.5 535.5,435.5C 541.07,434.006 544.07,436.006 544.5,441.5C 541.813,441.336 539.146,441.503 536.5,442C 537.495,446.488 539.661,450.322 543,453.5C 545.333,452.5 547,450.833 548,448.5C 549.674,452.021 550.84,455.687 551.5,459.5C 528.465,462.242 513.631,452.575 507,430.5C 504.722,408.029 514.222,393.362 535.5,386.5 Z M 541.5,393.5 C 539.703,396.928 538.036,400.428 536.5,404C 540.821,404.499 545.154,404.666 549.5,404.5C 548.908,401.309 547.741,398.309 546,395.5C 544.89,393.963 543.39,393.297 541.5,393.5 Z M 554.5,395.5 C 555.167,398.5 555.833,401.5 556.5,404.5C 559.85,404.665 563.183,404.498 566.5,404C 562.898,400.559 558.898,397.725 554.5,395.5 Z M 531.5,396.5 C 526.941,397.538 523.274,400.038 520.5,404C 527.587,406.153 531.253,403.653 531.5,396.5 Z M 515.5,411.5 C 514.629,414.112 513.963,416.779 513.5,419.5C 518.167,419.5 522.833,419.5 527.5,419.5C 527.833,416.833 528.167,414.167 528.5,411.5C 524.167,411.5 519.833,411.5 515.5,411.5 Z M 558.5,411.5 C 558.5,414.167 558.5,416.833 558.5,419.5C 563.167,419.5 567.833,419.5 572.5,419.5C 572.425,416.794 572.092,414.127 571.5,411.5C 567.167,411.5 562.833,411.5 558.5,411.5 Z M 513.5,426.5 C 513.851,429.238 514.518,431.904 515.5,434.5C 519.783,435.492 524.116,435.826 528.5,435.5C 528.037,432.518 527.704,429.518 527.5,426.5C 522.833,426.5 518.167,426.5 513.5,426.5 Z M 520.5,441.5 C 520.859,443.371 521.859,444.871 523.5,446C 526.261,448.221 529.261,449.554 532.5,450C 531.123,447.667 530.123,445.167 529.5,442.5C 526.572,441.516 523.572,441.183 520.5,441.5 Z"/></g>
<g><path style="opacity:0.945" fill="#f4f7f7" d="M 673.5,401.5 C 676.395,403.202 678.228,405.536 679,408.5C 630.833,456.667 582.667,504.833 534.5,553C 531.72,553.269 529.554,552.102 528,549.5C 527.333,548.833 527.333,548.167 528,547.5C 576.701,498.965 625.201,450.299 673.5,401.5 Z"/></g>
<g><path style="opacity:0.941" fill="#f4f7f7" d="M 546.5,429.5 C 556.74,431.691 566.74,434.691 576.5,438.5C 574.833,440.5 573.167,442.5 571.5,444.5C 574.076,447.787 577.076,450.62 580.5,453C 577.979,455.22 575.812,457.72 574,460.5C 570.667,457.833 567.333,455.167 564,452.5C 562.5,454.667 561,456.833 559.5,459C 558.668,459.688 558.002,459.521 557.5,458.5C 553.536,448.912 549.869,439.245 546.5,429.5 Z"/></g>
<g><path style="opacity:0.937" fill="#f4f7f7" d="M 649.5,513.5 C 658.083,513.762 666.75,513.929 675.5,514C 679.77,515.27 682.27,518.104 683,522.5C 683.667,531.5 683.667,540.5 683,549.5C 682.27,553.896 679.77,556.73 675.5,558C 669.843,558.499 664.176,558.666 658.5,558.5C 658.5,563.5 658.5,568.5 658.5,573.5C 655.5,573.5 652.5,573.5 649.5,573.5C 649.5,553.5 649.5,533.5 649.5,513.5 Z M 661.5,520.5 C 660.531,521.309 659.698,522.309 659,523.5C 658.5,532.827 658.334,542.161 658.5,551.5C 662.846,551.666 667.179,551.499 671.5,551C 673.333,550.5 674.5,549.333 675,547.5C 675.937,539.063 675.604,530.73 674,522.5C 670.078,520.688 665.911,520.021 661.5,520.5 Z"/></g>
<g><path style="opacity:0.922" fill="#f4f7f7" d="M 376.5,752.5 C 380.997,751.945 385.164,752.611 389,754.5C 390.067,753.809 391.234,753.309 392.5,753C 399.167,752.333 405.833,752.333 412.5,753C 419.862,754.094 424.362,758.261 426,765.5C 427.532,777.457 427.865,789.457 427,801.5C 426.618,811.209 421.785,817.376 412.5,820C 404.841,820.5 397.174,820.666 389.5,820.5C 389.5,828.167 389.5,835.833 389.5,843.5C 385.167,843.5 380.833,843.5 376.5,843.5C 376.5,813.167 376.5,782.833 376.5,752.5 Z M 393.5,763.5 C 399.176,763.334 404.843,763.501 410.5,764C 411.667,765.167 412.833,766.333 414,767.5C 414.667,780.167 414.667,792.833 414,805.5C 412.833,806.667 411.667,807.833 410.5,809C 403.508,809.5 396.508,809.666 389.5,809.5C 389.333,795.496 389.5,781.496 390,767.5C 390.69,765.65 391.856,764.316 393.5,763.5 Z"/></g>
<g><path style="opacity:0.951" fill="#f4f7f7" d="M 470.5,752.5 C 477.841,752.334 485.174,752.5 492.5,753C 498.767,754.934 502.601,759.1 504,765.5C 505.201,774.125 505.701,782.792 505.5,791.5C 493.5,791.5 481.5,791.5 469.5,791.5C 469.334,796.179 469.501,800.845 470,805.5C 470.374,806.416 470.874,807.25 471.5,808C 481.061,809.448 490.727,809.948 500.5,809.5C 500.5,813.167 500.5,816.833 500.5,820.5C 489.436,820.906 478.436,820.406 467.5,819C 462.6,817.098 459.433,813.598 458,808.5C 456,793.833 456,779.167 458,764.5C 460.12,758.211 464.286,754.211 470.5,752.5 Z M 472.5,763.5 C 478.621,763.09 484.621,763.59 490.5,765C 491.126,765.75 491.626,766.584 492,767.5C 492.499,771.821 492.666,776.154 492.5,780.5C 484.833,780.5 477.167,780.5 469.5,780.5C 469.334,775.821 469.501,771.155 470,766.5C 471.045,765.627 471.878,764.627 472.5,763.5 Z"/></g>
<g><path style="opacity:0.945" fill="#f4f7f7" d="M 531.5,753.5 C 535.97,752.514 540.637,752.181 545.5,752.5C 550.35,770.564 555.517,788.564 561,806.5C 565.978,788.928 570.811,771.261 575.5,753.5C 579.795,752.339 584.129,752.172 588.5,753C 581.44,777.071 574.606,801.238 568,825.5C 565.594,840.795 556.761,846.795 541.5,843.5C 541.335,840.15 541.502,836.817 542,833.5C 545.466,832.798 548.966,832.131 552.5,831.5C 554.414,828.428 555.748,825.095 556.5,821.5C 555.066,820.77 553.9,819.77 553,818.5C 546.093,796.615 538.927,774.948 531.5,753.5 Z"/></g>
<g><path style="opacity:0.961" fill="#f4f7f7" d="M 607.5,752.5 C 611.673,751.956 615.506,752.623 619,754.5C 619.75,753.874 620.584,753.374 621.5,753C 625.833,752.333 630.167,752.333 634.5,753C 637.196,753.69 639.363,755.19 641,757.5C 642.637,755.19 644.804,753.69 647.5,753C 662.306,749.638 669.806,755.471 670,770.5C 670.5,787.163 670.667,803.83 670.5,820.5C 666.5,820.5 662.5,820.5 658.5,820.5C 658.667,802.497 658.5,784.497 658,766.5C 657.546,763.388 655.713,761.722 652.5,761.5C 647.918,761.581 645.418,763.915 645,768.5C 644.5,785.83 644.333,803.163 644.5,820.5C 640.833,820.5 637.167,820.5 633.5,820.5C 633.667,803.163 633.5,785.83 633,768.5C 631.93,762.139 628.43,760.305 622.5,763C 621.299,763.903 620.465,765.069 620,766.5C 619.5,784.497 619.333,802.497 619.5,820.5C 615.5,820.5 611.5,820.5 607.5,820.5C 607.5,797.833 607.5,775.167 607.5,752.5 Z"/></g>
<g><path style="opacity:0.955" fill="#f4f7f7" d="M 695.5,752.5 C 705.172,752.334 714.839,752.5 724.5,753C 731.702,754.869 736.202,759.369 738,766.5C 738.333,780.167 738.667,793.833 739,807.5C 740.552,808.966 742.386,809.966 744.5,810.5C 745.487,813.768 745.82,817.102 745.5,820.5C 740.066,821.227 735.066,820.227 730.5,817.5C 729.3,818.531 727.966,819.365 726.5,820C 694.815,826.66 683.982,814.827 694,784.5C 696.1,781.533 698.934,779.7 702.5,779C 710.439,777.679 718.439,777.179 726.5,777.5C 726.665,774.482 726.498,771.482 726,768.5C 725.167,766.333 723.667,764.833 721.5,764C 712.84,763.5 704.173,763.334 695.5,763.5C 695.5,759.833 695.5,756.167 695.5,752.5 Z M 709.5,788.5 C 715.167,788.5 720.833,788.5 726.5,788.5C 726.666,794.842 726.5,801.175 726,807.5C 725.5,808 725,808.5 724.5,809C 717.833,809.667 711.167,809.667 704.5,809C 703.874,808.25 703.374,807.416 703,806.5C 702.333,802.167 702.333,797.833 703,793.5C 704.563,790.977 706.73,789.31 709.5,788.5 Z"/></g>
<g><path style="opacity:0.919" fill="#f4f7f7" d="M 771.5,752.5 C 775.997,751.945 780.164,752.611 784,754.5C 785.067,753.809 786.234,753.309 787.5,753C 794.5,752.333 801.5,752.333 808.5,753C 817.479,755.758 821.979,761.924 822,771.5C 822.5,787.83 822.667,804.163 822.5,820.5C 818.167,820.5 813.833,820.5 809.5,820.5C 809.667,802.83 809.5,785.164 809,767.5C 805.857,763.992 801.857,762.659 797,763.5C 794.167,763.667 791.333,763.833 788.5,764C 786.667,764.5 785.5,765.667 785,767.5C 784.5,785.164 784.333,802.83 784.5,820.5C 780.167,820.5 775.833,820.5 771.5,820.5C 771.5,797.833 771.5,775.167 771.5,752.5 Z"/></g>
</svg>
