<?xml version="1.0" encoding="UTF-8"?>
<!DOCTYPE svg PUBLIC "-//W3C//DTD SVG 1.1//EN" "http://www.w3.org/Graphics/SVG/1.1/DTD/svg11.dtd">
<svg xmlns="http://www.w3.org/2000/svg" version="1.1" width="800px" height="800px" style="shape-rendering:geometricPrecision; text-rendering:geometricPrecision; image-rendering:optimizeQuality; fill-rule:evenodd; clip-rule:evenodd" xmlns:xlink="http://www.w3.org/1999/xlink">
<g><path style="opacity:1" fill="#5da0a2" d="M -0.5,-0.5 C 266.167,-0.5 532.833,-0.5 799.5,-0.5C 799.5,266.167 799.5,532.833 799.5,799.5C 532.833,799.5 266.167,799.5 -0.5,799.5C -0.5,532.833 -0.5,266.167 -0.5,-0.5 Z"/></g>
<g><path style="opacity:1" fill="#f3f7f6" d="M 294.5,214.5 C 364.5,214.5 434.5,214.5 504.5,214.5C 504.5,284.5 504.5,354.5 504.5,424.5C 434.5,424.5 364.5,424.5 294.5,424.5C 294.5,354.5 294.5,284.5 294.5,214.5 Z"/></g>
<g><path style="opacity:1" fill="#5da0a2" d="M 299.5,219.5 C 366.167,219.5 432.833,219.5 499.5,219.5C 499.5,286.167 499.5,352.833 499.5,419.5C 432.833,419.5 366.167,419.5 299.5,419.5C 299.5,352.833 299.5,286.167 299.5,219.5 Z"/></g>
<g><path style="opacity:1" fill="#ecf2f2" d="M 361.5,281.5 C 363.5,280.833 365.5,280.167 367.5,279.5C 367.954,277.741 367.954,275.741 367.5,273.5C 363.833,273.5 360.167,273.5 356.5,273.5C 355.167,279.167 355.167,284.833 356.5,290.5C 359.288,290.077 361.288,291.077 362.5,293.5C 360.955,294.452 359.288,294.785 357.5,294.5C 357.762,297.691 359.095,300.358 361.5,302.5C 362.814,301.687 363.981,300.687 365,299.5C 366.118,301.765 366.951,304.099 367.5,306.5C 347.054,306.888 337.221,296.888 338,276.5C 342.934,262.573 352.767,256.406 367.5,258C 381.472,262.966 387.638,272.799 386,287.5C 382.681,288.644 381.181,287.311 381.5,283.5C 374.7,283.872 368.033,283.206 361.5,281.5 Z"/></g>
<g><path style="opacity:1" fill="#62a3a5" d="M 360.5,262.5 C 364.109,262.775 366.109,264.775 366.5,268.5C 358.182,271.033 356.182,269.033 360.5,262.5 Z"/></g>
<g><path style="opacity:1" fill="#66a4a6" d="M 352.5,263.5 C 354.84,264.572 355.173,266.239 353.5,268.5C 351.235,269.647 348.902,269.814 346.5,269C 348.396,266.932 350.396,265.099 352.5,263.5 Z"/></g>
<g><path style="opacity:1" fill="#67a5a7" d="M 368.5,262.5 C 372.136,263.676 375.136,265.842 377.5,269C 371.684,270.657 368.684,268.49 368.5,262.5 Z"/></g>
<g><path style="opacity:1" fill="#f3f7f6" d="M 448.5,268.5 C 450.446,269.254 451.279,270.588 451,272.5C 419,304.5 387,336.5 355,368.5C 353.322,367.534 352.655,366.201 353,364.5C 385.035,332.632 416.868,300.632 448.5,268.5 Z"/></g>
<g><path style="opacity:1" fill="#6ba7a9" d="M 351.5,279.5 C 348.5,279.5 345.5,279.5 342.5,279.5C 342.5,278.5 342.5,277.5 342.5,276.5C 342.414,275.504 342.748,274.671 343.5,274C 346.167,273.333 348.833,273.333 351.5,274C 352.807,275.943 352.807,277.777 351.5,279.5 Z"/></g>
<g><path style="opacity:1" fill="#6ca8aa" d="M 381.5,276.5 C 381.5,277.5 381.5,278.5 381.5,279.5C 378.5,279.5 375.5,279.5 372.5,279.5C 371.193,277.777 371.193,275.943 372.5,274C 375.167,273.333 377.833,273.333 380.5,274C 381.252,274.671 381.586,275.504 381.5,276.5 Z"/></g>
<g><path style="opacity:1" fill="#a9cccd" d="M 342.5,276.5 C 342.5,277.5 342.5,278.5 342.5,279.5C 345.5,279.5 348.5,279.5 351.5,279.5C 348.375,280.479 345.042,280.813 341.5,280.5C 341.232,278.901 341.566,277.568 342.5,276.5 Z"/></g>
<g><path style="opacity:1" fill="#a0c7c7" d="M 367.5,279.5 C 365.5,280.167 363.5,280.833 361.5,281.5C 360.527,281.013 359.527,280.513 358.5,280C 361.482,279.502 364.482,279.335 367.5,279.5 Z"/></g>
<g><path style="opacity:1" fill="#a9cccd" d="M 381.5,276.5 C 382.434,277.568 382.768,278.901 382.5,280.5C 378.958,280.813 375.625,280.479 372.5,279.5C 375.5,279.5 378.5,279.5 381.5,279.5C 381.5,278.5 381.5,277.5 381.5,276.5 Z"/></g>
<g><path style="opacity:1" fill="#70aaac" d="M 342.5,283.5 C 345.518,283.335 348.518,283.502 351.5,284C 352.423,286.041 352.756,288.208 352.5,290.5C 349.482,290.665 346.482,290.498 343.5,290C 342.577,287.959 342.244,285.792 342.5,283.5 Z"/></g>
<g><path style="opacity:1" fill="#eef3f3" d="M 364.5,286.5 C 371.064,288.406 377.731,290.239 384.5,292C 383.122,293.713 381.455,295.047 379.5,296C 381.043,297.878 382.876,299.378 385,300.5C 385.723,303.125 384.723,304.792 382,305.5C 380.037,304.375 378.204,303.041 376.5,301.5C 374.541,302.748 373.041,304.415 372,306.5C 369.578,299.726 367.078,293.059 364.5,286.5 Z"/></g>
<g><path style="opacity:1" fill="#64a3a5" d="M 346.5,295.5 C 348.607,294.532 350.941,294.198 353.5,294.5C 354.231,296.599 354.231,298.599 353.5,300.5C 350.87,299.196 348.537,297.53 346.5,295.5 Z"/></g>
<g><path style="opacity:1" fill="#eff4f4" d="M 433.5,342.5 C 439.02,342.728 444.687,342.894 450.5,343C 453.102,343.935 454.602,345.768 455,348.5C 455.924,355.608 455.591,362.608 454,369.5C 452.745,370.211 451.579,371.044 450.5,372C 446.514,372.499 442.514,372.666 438.5,372.5C 438.5,375.833 438.5,379.167 438.5,382.5C 436.833,382.5 435.167,382.5 433.5,382.5C 433.5,369.167 433.5,355.833 433.5,342.5 Z"/></g>
<g><path style="opacity:1" fill="#66a5a7" d="M 441.5,346.5 C 444.602,346.154 447.435,346.821 450,348.5C 450.667,354.5 450.667,360.5 450,366.5C 446.488,368.648 442.821,368.981 439,367.5C 438.333,361.5 438.333,355.5 439,349.5C 439.698,348.309 440.531,347.309 441.5,346.5 Z"/></g>
<g><path style="opacity:1" fill="#f0f5f5" d="M 250.5,502.5 C 253.394,502.042 255.894,502.709 258,504.5C 264.025,502.063 270.192,501.897 276.5,504C 279.756,505.587 281.923,508.087 283,511.5C 283.667,520.5 283.667,529.5 283,538.5C 281.283,543.551 277.783,546.385 272.5,547C 267.511,547.499 262.511,547.666 257.5,547.5C 257.5,552.5 257.5,557.5 257.5,562.5C 255.167,562.5 252.833,562.5 250.5,562.5C 250.5,542.5 250.5,522.5 250.5,502.5 Z"/></g>
<g><path style="opacity:1" fill="#f0f4f4" d="M 311.5,502.5 C 331.743,499.589 339.743,508.255 335.5,528.5C 327.5,528.5 319.5,528.5 311.5,528.5C 311.335,531.518 311.502,534.518 312,537.5C 312.308,538.308 312.808,538.975 313.5,539.5C 319.773,540.46 326.107,540.793 332.5,540.5C 332.5,542.833 332.5,545.167 332.5,547.5C 325.825,547.666 319.158,547.5 312.5,547C 308.667,545.833 306.167,543.333 305,539.5C 304.072,528.76 304.405,518.093 306,507.5C 307.812,505.7 309.645,504.033 311.5,502.5 Z"/></g>
<g><path style="opacity:1" fill="#f0f4f4" d="M 354.5,502.5 C 357.448,502.223 360.281,502.556 363,503.5C 366.48,515.604 370.147,527.604 374,539.5C 377.309,527.596 380.309,515.596 383,503.5C 385.737,502.39 388.571,502.223 391.5,503C 386.44,519.738 381.606,536.571 377,553.5C 374.672,561.415 369.505,564.249 361.5,562C 361.512,560.025 361.178,557.858 360.5,555.5C 366.028,556.931 369.362,554.931 370.5,549.5C 364.709,534.011 359.376,518.344 354.5,502.5 Z"/></g>
<g><path style="opacity:1" fill="#f1f5f5" d="M 405.5,502.5 C 409.75,503.048 413.917,503.048 418,502.5C 421.296,502.71 424.296,503.71 427,505.5C 433.239,501.316 439.239,501.65 445,506.5C 446.446,520.093 446.946,533.76 446.5,547.5C 444.167,547.5 441.833,547.5 439.5,547.5C 439.667,535.829 439.5,524.162 439,512.5C 437.936,508.705 435.436,507.539 431.5,509C 430.874,509.75 430.374,510.584 430,511.5C 429.5,523.495 429.333,535.495 429.5,547.5C 427.167,547.5 424.833,547.5 422.5,547.5C 422.667,535.495 422.5,523.495 422,511.5C 420.334,508.621 417.834,507.788 414.5,509C 413.874,509.75 413.374,510.584 413,511.5C 412.5,523.495 412.333,535.495 412.5,547.5C 410.167,547.5 407.833,547.5 405.5,547.5C 405.5,532.5 405.5,517.5 405.5,502.5 Z"/></g>
<g><path style="opacity:1" fill="#f0f4f4" d="M 464.5,502.5 C 470.176,502.334 475.843,502.501 481.5,503C 486.422,503.598 489.922,506.098 492,510.5C 492.333,520.167 492.667,529.833 493,539.5C 494.011,540.337 495.178,540.67 496.5,540.5C 496.5,542.833 496.5,545.167 496.5,547.5C 492.713,548.186 489.546,547.186 487,544.5C 486.097,545.701 484.931,546.535 483.5,547C 466.19,551.343 458.69,544.843 461,527.5C 462.5,524 465,521.5 468.5,520C 473.823,519.501 479.156,519.334 484.5,519.5C 484.664,516.813 484.497,514.146 484,511.5C 482.89,509.963 481.39,509.297 479.5,509.5C 474.695,508.513 469.695,508.179 464.5,508.5C 464.5,506.5 464.5,504.5 464.5,502.5 Z"/></g>
<g><path style="opacity:1" fill="#f0f4f4" d="M 515.5,502.5 C 518.394,502.042 520.894,502.709 523,504.5C 523.75,503.874 524.584,503.374 525.5,503C 530.167,502.333 534.833,502.333 539.5,503C 542.562,504.061 545.062,505.894 547,508.5C 548.443,521.426 548.943,534.426 548.5,547.5C 545.833,547.5 543.167,547.5 540.5,547.5C 540.667,535.495 540.5,523.495 540,511.5C 539.5,511 539,510.5 538.5,510C 534.167,509.333 529.833,509.333 525.5,510C 524.299,510.903 523.465,512.069 523,513.5C 522.5,524.828 522.333,536.162 522.5,547.5C 520.167,547.5 517.833,547.5 515.5,547.5C 515.5,532.5 515.5,517.5 515.5,502.5 Z"/></g>
<g><path style="opacity:1" fill="#c4dcdc" d="M 464.5,502.5 C 464.5,504.5 464.5,506.5 464.5,508.5C 469.695,508.179 474.695,508.513 479.5,509.5C 474.167,509.5 468.833,509.5 463.5,509.5C 463.198,506.941 463.532,504.607 464.5,502.5 Z"/></g>
<g><path style="opacity:1" fill="#60a2a3" d="M 260.5,509.5 C 264.514,509.334 268.514,509.501 272.5,510C 273.308,510.308 273.975,510.808 274.5,511.5C 275.637,520.118 275.804,528.785 275,537.5C 274.5,538.667 273.667,539.5 272.5,540C 267.511,540.499 262.511,540.666 257.5,540.5C 257.334,531.494 257.5,522.494 258,513.5C 258.662,512.016 259.496,510.683 260.5,509.5 Z"/></g>
<g><path style="opacity:1" fill="#61a2a4" d="M 313.5,509.5 C 317.967,509.133 322.3,509.633 326.5,511C 328.263,514.243 328.929,517.743 328.5,521.5C 322.833,521.5 317.167,521.5 311.5,521.5C 311.079,517.258 311.746,513.258 313.5,509.5 Z"/></g>
<g><path style="opacity:1" fill="#5ea0a2" d="M 470.5,526.5 C 475.167,526.5 479.833,526.5 484.5,526.5C 484.666,530.846 484.499,535.179 484,539.5C 479,540.833 474,540.833 469,539.5C 467.978,534.871 468.478,530.538 470.5,526.5 Z"/></g>
</svg>
