<?xml version="1.0" encoding="UTF-8"?>
<!DOCTYPE svg PUBLIC "-//W3C//DTD SVG 1.1//EN" "http://www.w3.org/Graphics/SVG/1.1/DTD/svg11.dtd">
<svg xmlns="http://www.w3.org/2000/svg" version="1.1" width="330px" height="330px" style="shape-rendering:geometricPrecision; text-rendering:geometricPrecision; image-rendering:optimizeQuality; fill-rule:evenodd; clip-rule:evenodd" xmlns:xlink="http://www.w3.org/1999/xlink">
<g><path style="opacity:0.999" fill="#5da0a2" d="M 0.5,0.5 C 109.833,0.5 219.167,0.5 328.5,0.5C 328.5,109.833 328.5,219.167 328.5,328.5C 219.167,328.5 109.833,328.5 0.5,328.5C 0.5,219.167 0.5,109.833 0.5,0.5 Z"/></g>
<g><path style="opacity:1" fill="#ebf2f2" d="M 121.5,88.5 C 150.167,88.5 178.833,88.5 207.5,88.5C 207.5,117.167 207.5,145.833 207.5,174.5C 178.833,174.5 150.167,174.5 121.5,174.5C 121.5,145.833 121.5,117.167 121.5,88.5 Z"/></g>
<g><path style="opacity:1" fill="#5ea0a2" d="M 123.5,90.5 C 150.833,90.5 178.167,90.5 205.5,90.5C 205.5,117.833 205.5,145.167 205.5,172.5C 178.167,172.5 150.833,172.5 123.5,172.5C 123.5,145.167 123.5,117.833 123.5,90.5 Z"/></g>
<g><path style="opacity:1" fill="#e1ecec" d="M 145.5,106.5 C 152.536,105.515 157.202,108.348 159.5,115C 159.273,116.135 158.94,117.302 158.5,118.5C 155.49,117.731 152.49,116.897 149.5,116C 152,115.167 152.167,114 150,112.5C 149,112.833 148,113.167 147,113.5C 146.048,116.644 146.881,119.144 149.5,121C 148.692,121.308 148.025,121.808 147.5,122.5C 149.101,123.204 150.435,124.371 151.5,126C 141.963,126.459 138.13,121.959 140,112.5C 141.36,109.977 143.193,107.977 145.5,106.5 Z"/></g>
<g><path style="opacity:1" fill="#6faaac" d="M 148.5,108.5 C 150.048,108.821 150.715,109.821 150.5,111.5C 147.752,111.598 147.086,110.598 148.5,108.5 Z"/></g>
<g><path style="opacity:1" fill="#8dbbbd" d="M 145.5,108.5 C 146.737,109.743 146.404,110.743 144.5,111.5C 144.167,111.167 143.833,110.833 143.5,110.5C 144.243,109.818 144.909,109.151 145.5,108.5 Z"/></g>
<g><path style="opacity:1" fill="#82b5b7" d="M 152.5,109.5 C 154.983,109.73 155.483,110.397 154,111.5C 152.97,111.164 152.47,110.497 152.5,109.5 Z"/></g>
<g><path style="opacity:1" fill="#e3eded" d="M 184.5,110.5 C 185.289,110.783 185.956,111.283 186.5,112C 173.319,125.347 159.986,138.514 146.5,151.5C 145.479,150.998 145.312,150.332 146,149.5C 159.035,136.632 171.869,123.632 184.5,110.5 Z"/></g>
<g><path style="opacity:1" fill="#67a5a7" d="M 143.5,112.5 C 146.151,113.725 145.984,114.725 143,115.5C 142.5,115.167 142,114.833 141.5,114.5C 142.243,113.818 142.909,113.151 143.5,112.5 Z"/></g>
<g><path style="opacity:1" fill="#6da9ab" d="M 153.5,112.5 C 154.397,113.598 155.23,113.598 156,112.5C 157.713,114.821 156.88,115.821 153.5,115.5C 153.5,114.5 153.5,113.5 153.5,112.5 Z"/></g>
<g><path style="opacity:1" fill="#64a4a5" d="M 141.5,117.5 C 143.103,117.312 144.437,117.812 145.5,119C 143.537,119.844 142.204,119.344 141.5,117.5 Z"/></g>
<g><path style="opacity:1" fill="#e8f0f0" d="M 150.5,118.5 C 152.564,118.687 154.564,119.187 156.5,120C 156.13,121.61 156.797,123.11 158.5,124.5C 156.784,124.997 155.117,125.331 153.5,125.5C 151.918,123.423 150.918,121.09 150.5,118.5 Z"/></g>
<g><path style="opacity:1" fill="#eaf1f1" d="M 178.5,141.5 C 186.854,140.619 189.521,144.286 186.5,152.5C 184.591,153.348 182.591,153.682 180.5,153.5C 180.762,154.978 180.429,156.311 179.5,157.5C 178.505,152.208 178.172,146.875 178.5,141.5 Z"/></g>
<g><path style="opacity:1" fill="#66a5a7" d="M 181.5,143.5 C 182.833,143.5 184.167,143.5 185.5,143.5C 185.5,146.167 185.5,148.833 185.5,151.5C 183.833,151.5 182.167,151.5 180.5,151.5C 180.279,148.721 180.612,146.054 181.5,143.5 Z"/></g>
<g><path style="opacity:1" fill="#eaf1f1" d="M 103.5,205.5 C 107.014,205.764 110.681,205.931 114.5,206C 115.701,206.903 116.535,208.069 117,209.5C 117.867,213.956 117.534,218.289 116,222.5C 113.174,224.34 110.007,225.006 106.5,224.5C 106.5,226.5 106.5,228.5 106.5,230.5C 105.5,230.5 104.5,230.5 103.5,230.5C 103.5,222.167 103.5,213.833 103.5,205.5 Z"/></g>
<g><path style="opacity:1" fill="#e9f0f1" d="M 128.5,205.5 C 137.339,204.009 140.672,207.675 138.5,216.5C 135.5,216.5 132.5,216.5 129.5,216.5C 129.5,218.167 129.5,219.833 129.5,221.5C 132.167,221.5 134.833,221.5 137.5,221.5C 137.5,222.5 137.5,223.5 137.5,224.5C 133.743,224.929 130.243,224.263 127,222.5C 124.665,216.434 125.165,210.767 128.5,205.5 Z"/></g>
<g><path style="opacity:1" fill="#e9f0f0" d="M 145.5,206.5 C 146.568,205.566 147.901,205.232 149.5,205.5C 150.533,210.63 152.033,215.63 154,220.5C 155.328,215.522 156.495,210.522 157.5,205.5C 158.5,205.5 159.5,205.5 160.5,205.5C 159.019,213.927 156.685,222.094 153.5,230C 151.866,230.494 150.199,230.66 148.5,230.5C 148.5,229.5 148.5,228.5 148.5,227.5C 150.346,227.778 151.68,227.111 152.5,225.5C 150.334,218.991 148.001,212.658 145.5,206.5 Z"/></g>
<g><path style="opacity:1" fill="#e8f0f0" d="M 167.5,205.5 C 171.569,205.996 175.569,205.996 179.5,205.5C 181.029,205.529 182.196,206.196 183,207.5C 183.499,213.157 183.666,218.824 183.5,224.5C 182.5,224.5 181.5,224.5 180.5,224.5C 180.5,219.167 180.5,213.833 180.5,208.5C 178.876,208.36 177.71,209.027 177,210.5C 176.828,215.202 176.328,219.868 175.5,224.5C 174.692,224.192 174.025,223.692 173.5,223C 174.62,218.444 174.62,213.611 173.5,208.5C 172.5,208.5 171.5,208.5 170.5,208.5C 170.5,213.833 170.5,219.167 170.5,224.5C 169.5,224.5 168.5,224.5 167.5,224.5C 167.5,218.167 167.5,211.833 167.5,205.5 Z"/></g>
<g><path style="opacity:1" fill="#e7eff0" d="M 190.5,205.5 C 194.257,205.071 197.757,205.737 201,207.5C 202.162,213.116 202.996,218.782 203.5,224.5C 199.655,224.289 195.655,224.122 191.5,224C 188.671,221.188 188.171,218.021 190,214.5C 192.565,212.821 195.398,212.154 198.5,212.5C 198.5,211.167 198.5,209.833 198.5,208.5C 195.833,208.5 193.167,208.5 190.5,208.5C 190.5,207.5 190.5,206.5 190.5,205.5 Z"/></g>
<g><path style="opacity:1" fill="#e9f0f1" d="M 211.5,205.5 C 215.014,205.764 218.681,205.931 222.5,206C 223,206.5 223.5,207 224,207.5C 225.404,213.044 225.904,218.71 225.5,224.5C 224.5,224.5 223.5,224.5 222.5,224.5C 222.666,219.821 222.499,215.155 222,210.5C 219.975,208.275 217.642,207.941 215,209.5C 214.501,214.489 214.334,219.489 214.5,224.5C 213.5,224.5 212.5,224.5 211.5,224.5C 211.5,218.167 211.5,211.833 211.5,205.5 Z"/></g>
<g><path style="opacity:1" fill="#66a5a7" d="M 107.5,208.5 C 112.818,207.537 115.151,209.704 114.5,215C 114.795,220.507 112.128,222.674 106.5,221.5C 106.231,217.069 106.564,212.735 107.5,208.5 Z"/></g>
<g><path style="opacity:1" fill="#60a1a3" d="M 129.5,208.5 C 131.5,208.5 133.5,208.5 135.5,208.5C 135.5,210.167 135.5,211.833 135.5,213.5C 133.5,213.5 131.5,213.5 129.5,213.5C 129.5,211.833 129.5,210.167 129.5,208.5 Z"/></g>
<g><path style="opacity:1" fill="#5da0a2" d="M 193.5,215.5 C 195.167,215.5 196.833,215.5 198.5,215.5C 198.5,217.5 198.5,219.5 198.5,221.5C 196.5,221.5 194.5,221.5 192.5,221.5C 192.325,219.379 192.659,217.379 193.5,215.5 Z"/></g>
</svg>
