<?xml version="1.0" encoding="UTF-8"?>
<!DOCTYPE svg PUBLIC "-//W3C//DTD SVG 1.1//EN" "http://www.w3.org/Graphics/SVG/1.1/DTD/svg11.dtd">
<svg xmlns="http://www.w3.org/2000/svg" version="1.1" width="1500px" height="500px" style="shape-rendering:geometricPrecision; text-rendering:geometricPrecision; image-rendering:optimizeQuality; fill-rule:evenodd; clip-rule:evenodd" xmlns:xlink="http://www.w3.org/1999/xlink">
<g><path style="opacity:1" fill="#5da0a2" d="M -0.5,-0.5 C 499.5,-0.5 999.5,-0.5 1499.5,-0.5C 1499.5,166.167 1499.5,332.833 1499.5,499.5C 999.5,499.5 499.5,499.5 -0.5,499.5C -0.5,332.833 -0.5,166.167 -0.5,-0.5 Z"/></g>
<g><path style="opacity:1" fill="#ecf2f2" d="M 814.5,134.5 C 814.5,177.833 814.5,221.167 814.5,264.5C 771.167,264.5 727.833,264.5 684.5,264.5C 684.5,221.167 684.5,177.833 684.5,134.5C 727.833,133.167 771.167,133.167 814.5,134.5 Z"/></g>
<g><path style="opacity:1" fill="#c1dada" d="M 684.5,134.5 C 684.5,177.833 684.5,221.167 684.5,264.5C 727.833,264.5 771.167,264.5 814.5,264.5C 814.5,221.167 814.5,177.833 814.5,134.5C 815.499,177.997 815.832,221.663 815.5,265.5C 771.5,265.5 727.5,265.5 683.5,265.5C 683.168,221.663 683.501,177.997 684.5,134.5 Z"/></g>
<g><path style="opacity:1" fill="#aecfd0" d="M 686.5,136.5 C 728.5,136.5 770.5,136.5 812.5,136.5C 812.5,178.5 812.5,220.5 812.5,262.5C 770.5,262.5 728.5,262.5 686.5,262.5C 686.5,220.5 686.5,178.5 686.5,136.5 Z"/></g>
<g><path style="opacity:1" fill="#5da0a2" d="M 687.5,137.5 C 728.833,137.5 770.167,137.5 811.5,137.5C 811.5,178.833 811.5,220.167 811.5,261.5C 770.167,261.5 728.833,261.5 687.5,261.5C 687.5,220.167 687.5,178.833 687.5,137.5 Z"/></g>
<g><path style="opacity:1" fill="#e3eded" d="M 770.5,213.5 C 774.182,213.335 777.848,213.501 781.5,214C 782.667,214.5 783.5,215.333 784,216.5C 784.777,221.222 784.61,225.889 783.5,230.5C 780.807,232.27 777.807,232.937 774.5,232.5C 774.5,234.5 774.5,236.5 774.5,238.5C 773.167,238.5 771.833,238.5 770.5,238.5C 770.5,230.167 770.5,221.833 770.5,213.5 Z"/></g>
<g><path style="opacity:1" fill="#62a3a5" d="M 774.5,216.5 C 780.239,215.073 782.572,217.24 781.5,223C 782.572,228.76 780.239,230.927 774.5,229.5C 774.5,225.167 774.5,220.833 774.5,216.5 Z"/></g>
<g><path style="opacity:1" fill="#ebf1f1" d="M 727.5,178.5 C 731.614,179.725 735.614,181.225 739.5,183C 738.833,183.667 738.167,184.333 737.5,185C 740.6,186.668 741.1,188.835 739,191.5C 737.165,188.142 734.998,187.809 732.5,190.5C 730.826,186.487 729.159,182.487 727.5,178.5 Z"/></g>
<g><path style="opacity:1" fill="#deeaeb" d="M 779.5,167.5 C 781.686,167.511 782.519,168.511 782,170.5C 762,190.5 742,210.5 722,230.5C 721.167,229.667 720.333,228.833 719.5,228C 739.702,207.965 759.702,187.799 779.5,167.5 Z"/></g>
<g><path style="opacity:1" fill="#e2eded" d="M 723.5,160.5 C 735.655,160.988 741.655,167.322 741.5,179.5C 735.855,178.08 730.188,176.58 724.5,175C 726.134,174.506 727.801,174.34 729.5,174.5C 729.5,173.5 729.5,172.5 729.5,171.5C 727.167,171.5 724.833,171.5 722.5,171.5C 722.5,174.833 722.5,178.167 722.5,181.5C 723.978,181.238 725.311,181.571 726.5,182.5C 725.675,183.386 724.675,183.719 723.5,183.5C 723.478,186.998 724.978,188.331 728,187.5C 730.468,190.252 729.801,191.585 726,191.5C 711.529,188.223 707.529,179.89 714,166.5C 716.843,163.837 720.009,161.837 723.5,160.5 Z"/></g>
<g><path style="opacity:1" fill="#74acae" d="M 716.5,183.5 C 720.419,182.746 721.753,184.08 720.5,187.5C 718.625,186.591 717.292,185.257 716.5,183.5 Z"/></g>
<g><path style="opacity:1" fill="#66a5a7" d="M 713.5,177.5 C 715.5,177.5 717.5,177.5 719.5,177.5C 719.5,178.833 719.5,180.167 719.5,181.5C 716.112,182.031 714.112,180.697 713.5,177.5 Z"/></g>
<g><path style="opacity:1" fill="#61a2a4" d="M 732.5,171.5 C 734.5,171.5 736.5,171.5 738.5,171.5C 738.5,172.5 738.5,173.5 738.5,174.5C 736.5,174.5 734.5,174.5 732.5,174.5C 732.5,173.5 732.5,172.5 732.5,171.5 Z"/></g>
<g><path style="opacity:1" fill="#62a3a5" d="M 713.5,171.5 C 715.5,171.5 717.5,171.5 719.5,171.5C 719.5,172.5 719.5,173.5 719.5,174.5C 717.5,174.5 715.5,174.5 713.5,174.5C 713.5,173.5 713.5,172.5 713.5,171.5 Z"/></g>
<g><path style="opacity:1" fill="#63a3a5" d="M 730.5,164.5 C 732.544,165.031 734.211,166.198 735.5,168C 732.461,168.813 730.794,167.646 730.5,164.5 Z"/></g>
<g><path style="opacity:1" fill="#65a4a6" d="M 720.5,164.5 C 721.835,167.994 720.501,169.16 716.5,168C 717.731,166.595 719.064,165.429 720.5,164.5 Z"/></g>
<g><path style="opacity:1" fill="#61a2a4" d="M 725.5,163.5 C 727.727,164.401 728.727,166.067 728.5,168.5C 726.833,168.5 725.167,168.5 723.5,168.5C 723.392,166.486 724.058,164.82 725.5,163.5 Z"/></g>
<g><path style="opacity:1" fill="#edf3f3" d="M 658.5,313.5 C 663.411,313.8 668.411,313.966 673.5,314C 677.153,315.132 678.987,317.632 679,321.5C 679.878,327.302 679.378,332.969 677.5,338.5C 676.335,339.584 675.002,340.417 673.5,341C 670.183,341.498 666.85,341.665 663.5,341.5C 663.5,344.833 663.5,348.167 663.5,351.5C 661.833,351.5 660.167,351.5 658.5,351.5C 658.5,338.833 658.5,326.167 658.5,313.5 Z"/></g>
<g><path style="opacity:1" fill="#eef3f3" d="M 695.5,313.5 C 708.002,311.671 713.002,317.004 710.5,329.5C 705.5,329.5 700.5,329.5 695.5,329.5C 695.055,332.365 695.722,334.865 697.5,337C 701.152,337.499 704.818,337.665 708.5,337.5C 708.5,338.833 708.5,340.167 708.5,341.5C 704.486,341.666 700.486,341.499 696.5,341C 694.671,340.727 693.171,339.893 692,338.5C 690.464,332.251 690.13,325.917 691,319.5C 691.599,316.746 693.099,314.746 695.5,313.5 Z"/></g>
<g><path style="opacity:1" fill="#ecf2f2" d="M 722.5,313.5 C 724.288,313.215 725.955,313.548 727.5,314.5C 729.766,321.464 731.932,328.464 734,335.5C 736.464,328.646 738.464,321.646 740,314.5C 741.356,313.62 742.856,313.286 744.5,313.5C 742.268,324.639 739.434,335.639 736,346.5C 734.348,350.877 731.181,352.544 726.5,351.5C 726.5,350.167 726.5,348.833 726.5,347.5C 730.29,348.047 732.29,346.38 732.5,342.5C 728.403,333.123 725.07,323.456 722.5,313.5 Z"/></g>
<g><path style="opacity:1" fill="#e7eff0" d="M 752.5,313.5 C 755.641,314.089 758.641,314.089 761.5,313.5C 763.481,313.437 765.148,314.104 766.5,315.5C 770.035,312.872 773.535,312.872 777,315.5C 778.441,324.058 778.941,332.724 778.5,341.5C 776.833,341.5 775.167,341.5 773.5,341.5C 773.666,333.826 773.5,326.159 773,318.5C 771.667,317.167 770.333,317.167 769,318.5C 768.5,326.159 768.334,333.826 768.5,341.5C 766.833,341.5 765.167,341.5 763.5,341.5C 763.666,333.826 763.5,326.159 763,318.5C 760.978,317.009 759.312,317.342 758,319.5C 757.5,326.826 757.334,334.159 757.5,341.5C 755.833,341.5 754.167,341.5 752.5,341.5C 752.5,332.167 752.5,322.833 752.5,313.5 Z"/></g>
<g><path style="opacity:1" fill="#edf3f3" d="M 789.5,313.5 C 793.846,313.334 798.179,313.501 802.5,314C 803.931,314.465 805.097,315.299 806,316.5C 807.384,323.411 807.884,330.411 807.5,337.5C 808.5,337.5 809.5,337.5 810.5,337.5C 810.5,338.833 810.5,340.167 810.5,341.5C 804.213,341.057 797.879,340.891 791.5,341C 790.069,340.535 788.903,339.701 788,338.5C 785.381,326.366 790.214,321.7 802.5,324.5C 802.896,321.956 802.229,319.789 800.5,318C 796.848,317.501 793.182,317.335 789.5,317.5C 789.5,316.167 789.5,314.833 789.5,313.5 Z"/></g>
<g><path style="opacity:1" fill="#ebf2f2" d="M 820.5,313.5 C 825.743,313.754 831.076,313.92 836.5,314C 839.383,315.589 840.883,318.089 841,321.5C 841.5,328.158 841.666,334.825 841.5,341.5C 839.833,341.5 838.167,341.5 836.5,341.5C 836.666,334.159 836.5,326.826 836,319.5C 832.899,317.28 829.565,316.947 826,318.5C 825.5,326.159 825.334,333.826 825.5,341.5C 823.833,341.5 822.167,341.5 820.5,341.5C 820.5,332.167 820.5,322.833 820.5,313.5 Z"/></g>
<g><path style="opacity:1" fill="#64a4a6" d="M 664.5,317.5 C 672.828,315.828 676.162,319.162 674.5,327.5C 675.987,336.344 672.32,339.677 663.5,337.5C 663.207,330.745 663.54,324.078 664.5,317.5 Z"/></g>
<g><path style="opacity:1" fill="#66a5a7" d="M 697.5,317.5 C 704.5,315.833 707.167,318.5 705.5,325.5C 702.167,325.5 698.833,325.5 695.5,325.5C 695.107,322.487 695.774,319.82 697.5,317.5 Z"/></g>
<g><path style="opacity:1" fill="#61a2a4" d="M 793.5,328.5 C 796.5,328.5 799.5,328.5 802.5,328.5C 804.324,337.159 801.158,339.826 793,336.5C 792.278,333.739 792.445,331.073 793.5,328.5 Z"/></g>
</svg>
