<?xml version="1.0" encoding="UTF-8"?>
<!DOCTYPE svg PUBLIC "-//W3C//DTD SVG 1.1//EN" "http://www.w3.org/Graphics/SVG/1.1/DTD/svg11.dtd">
<svg xmlns="http://www.w3.org/2000/svg" version="1.1" width="1500px" height="500px" style="shape-rendering:geometricPrecision; text-rendering:geometricPrecision; image-rendering:optimizeQuality; fill-rule:evenodd; clip-rule:evenodd" xmlns:xlink="http://www.w3.org/1999/xlink">
<g><path style="opacity:1" fill="#5da0a2" d="M -0.5,-0.5 C 183.833,-0.5 368.167,-0.5 552.5,-0.5C 552.5,98.5 552.5,197.5 552.5,296.5C 683.833,296.5 815.167,296.5 946.5,296.5C 946.5,197.5 946.5,98.5 946.5,-0.5C 1130.83,-0.5 1315.17,-0.5 1499.5,-0.5C 1499.5,166.167 1499.5,332.833 1499.5,499.5C 1342.17,499.5 1184.83,499.5 1027.5,499.5C 1027.67,488.495 1027.5,477.495 1027,466.5C 1026.86,452.017 1019.7,443.85 1005.5,442C 999.167,441.333 992.833,441.333 986.5,442C 983.804,442.765 981.304,443.932 979,445.5C 978.51,444.207 978.343,442.873 978.5,441.5C 974.167,441.5 969.833,441.5 965.5,441.5C 965.5,460.833 965.5,480.167 965.5,499.5C 951.167,499.5 936.833,499.5 922.5,499.5C 922.667,486.163 922.5,472.829 922,459.5C 919.842,450.676 914.342,445.176 905.5,443C 893.547,441.635 881.547,441.135 869.5,441.5C 869.5,445.167 869.5,448.833 869.5,452.5C 878.775,454.473 888.442,455.14 898.5,454.5C 903.241,454.779 906.407,457.113 908,461.5C 908.499,465.486 908.666,469.486 908.5,473.5C 899.651,473.174 890.984,473.507 882.5,474.5C 872.948,475.21 866.781,480.21 864,489.5C 863.174,492.793 862.674,496.126 862.5,499.5C 854.167,499.5 845.833,499.5 837.5,499.5C 837.667,485.496 837.5,471.496 837,457.5C 834.997,446.073 828.164,440.739 816.5,441.5C 810.709,441.564 805.709,443.564 801.5,447.5C 793.991,441.699 785.657,440.199 776.5,443C 774.03,446.47 773.03,445.97 773.5,441.5C 769.167,441.5 764.833,441.5 760.5,441.5C 760.5,460.833 760.5,480.167 760.5,499.5C 746.5,499.5 732.5,499.5 718.5,499.5C 724.037,480.222 729.37,460.889 734.5,441.5C 729.5,441.5 724.5,441.5 719.5,441.5C 714.833,460.833 710.167,480.167 705.5,499.5C 702.833,499.5 700.167,499.5 697.5,499.5C 692.441,480.323 686.775,461.323 680.5,442.5C 675.5,441.167 670.5,441.167 665.5,442.5C 671.641,461.591 677.975,480.591 684.5,499.5C 651.833,499.5 619.167,499.5 586.5,499.5C 586.5,496.5 586.5,493.5 586.5,490.5C 601.5,490.5 616.5,490.5 631.5,490.5C 631.883,479.112 631.383,467.779 630,456.5C 626.89,448.391 621.057,443.557 612.5,442C 605.5,441.333 598.5,441.333 591.5,442C 582.732,442.79 576.898,447.29 574,455.5C 572.568,470.108 572.068,484.775 572.5,499.5C 559.833,499.5 547.167,499.5 534.5,499.5C 534.667,488.495 534.5,477.495 534,466.5C 534.189,454.04 528.356,446.207 516.5,443C 508.889,441.522 501.222,441.188 493.5,442C 490.804,442.765 488.304,443.932 486,445.5C 485.51,444.207 485.343,442.873 485.5,441.5C 481.167,441.5 476.833,441.5 472.5,441.5C 472.5,460.833 472.5,480.167 472.5,499.5C 314.833,499.5 157.167,499.5 -0.5,499.5C -0.5,332.833 -0.5,166.167 -0.5,-0.5 Z"/></g>
<g><path style="opacity:1" fill="#ebf1f2" d="M 552.5,-0.5 C 555.833,-0.5 559.167,-0.5 562.5,-0.5C 562.5,95.1667 562.5,190.833 562.5,286.5C 687.167,286.5 811.833,286.5 936.5,286.5C 936.5,190.833 936.5,95.1667 936.5,-0.5C 939.833,-0.5 943.167,-0.5 946.5,-0.5C 946.5,98.5 946.5,197.5 946.5,296.5C 815.167,296.5 683.833,296.5 552.5,296.5C 552.5,197.5 552.5,98.5 552.5,-0.5 Z"/></g>
<g><path style="opacity:1" fill="#5da0a2" d="M 562.5,-0.5 C 589.833,-0.5 617.167,-0.5 644.5,-0.5C 631.622,16.0718 630.122,33.7385 640,52.5C 652.092,70.3173 668.592,77.1506 689.5,73C 687.921,69.175 686.421,65.3416 685,61.5C 680.436,69.6567 676.436,69.3233 673,60.5C 672.548,57.8506 671.714,55.3506 670.5,53C 673.882,52.8236 677.215,52.3236 680.5,51.5C 680.02,49.0514 679.02,46.8847 677.5,45C 674.518,44.502 671.518,44.3354 668.5,44.5C 667.206,34.4975 667.206,24.4975 668.5,14.5C 675.532,14.1697 682.532,14.503 689.5,15.5C 690.417,18.7577 690.751,22.091 690.5,25.5C 684.491,25.3338 678.491,25.5005 672.5,26C 680.5,28.3333 688.5,30.6667 696.5,33C 703.158,33.4996 709.825,33.6663 716.5,33.5C 715.855,38.6943 718.189,41.0276 723.5,40.5C 726.86,25.2901 723.86,11.6235 714.5,-0.5C 788.5,-0.5 862.5,-0.5 936.5,-0.5C 936.5,95.1667 936.5,190.833 936.5,286.5C 811.833,286.5 687.167,286.5 562.5,286.5C 562.5,190.833 562.5,95.1667 562.5,-0.5 Z"/></g>
<g><path style="opacity:1" fill="#f0f5f5" d="M 644.5,-0.5 C 647.833,-0.5 651.167,-0.5 654.5,-0.5C 652.856,1.48073 651.19,3.48073 649.5,5.5C 653.795,6.66085 658.129,6.82752 662.5,6C 663.23,3.84604 663.897,1.67937 664.5,-0.5C 667.167,-0.5 669.833,-0.5 672.5,-0.5C 671.434,1.7014 670.767,4.03473 670.5,6.5C 676.167,6.5 681.833,6.5 687.5,6.5C 687.326,4.13895 686.993,1.80562 686.5,-0.5C 689.167,-0.5 691.833,-0.5 694.5,-0.5C 694.993,1.80562 695.326,4.13895 695.5,6.5C 700.179,6.66582 704.845,6.49915 709.5,6C 707.294,3.9633 705.294,1.79663 703.5,-0.5C 707.167,-0.5 710.833,-0.5 714.5,-0.5C 723.86,11.6235 726.86,25.2901 723.5,40.5C 718.189,41.0276 715.855,38.6943 716.5,33.5C 709.825,33.6663 703.158,33.4996 696.5,33C 688.5,30.6667 680.5,28.3333 672.5,26C 678.491,25.5005 684.491,25.3338 690.5,25.5C 690.751,22.091 690.417,18.7577 689.5,15.5C 682.532,14.503 675.532,14.1697 668.5,14.5C 667.206,24.4975 667.206,34.4975 668.5,44.5C 671.518,44.3354 674.518,44.502 677.5,45C 679.02,46.8847 680.02,49.0514 680.5,51.5C 677.215,52.3236 673.882,52.8236 670.5,53C 671.714,55.3506 672.548,57.8506 673,60.5C 676.436,69.3233 680.436,69.6567 685,61.5C 686.421,65.3416 687.921,69.175 689.5,73C 668.592,77.1506 652.092,70.3173 640,52.5C 630.122,33.7385 631.622,16.0718 644.5,-0.5 Z"/></g>
<g><path style="opacity:1" fill="#67a6a7" d="M 654.5,-0.5 C 657.833,-0.5 661.167,-0.5 664.5,-0.5C 663.897,1.67937 663.23,3.84604 662.5,6C 658.129,6.82752 653.795,6.66085 649.5,5.5C 651.19,3.48073 652.856,1.48073 654.5,-0.5 Z"/></g>
<g><path style="opacity:1" fill="#65a4a6" d="M 672.5,-0.5 C 677.167,-0.5 681.833,-0.5 686.5,-0.5C 686.993,1.80562 687.326,4.13895 687.5,6.5C 681.833,6.5 676.167,6.5 670.5,6.5C 670.767,4.03473 671.434,1.7014 672.5,-0.5 Z"/></g>
<g><path style="opacity:1" fill="#64a4a6" d="M 694.5,-0.5 C 697.5,-0.5 700.5,-0.5 703.5,-0.5C 705.294,1.79663 707.294,3.9633 709.5,6C 704.845,6.49915 700.179,6.66582 695.5,6.5C 695.326,4.13895 694.993,1.80562 694.5,-0.5 Z"/></g>
<g><path style="opacity:1" fill="#eef3f3" d="M 841.5,3.5 C 844.975,4.80176 847.142,7.13509 848,10.5C 787.333,71.1667 726.667,131.833 666,192.5C 663.065,190.273 661.065,187.606 660,184.5C 720.395,123.938 780.895,63.6049 841.5,3.5 Z"/></g>
<g><path style="opacity:1" fill="#a8cccc" d="M 644.5,14.5 C 649.975,13.5111 655.642,13.1778 661.5,13.5C 661.737,14.791 661.404,15.791 660.5,16.5C 655.604,14.5539 650.271,13.8872 644.5,14.5 Z"/></g>
<g><path style="opacity:1" fill="#5fa1a3" d="M 644.5,14.5 C 650.271,13.8872 655.604,14.5539 660.5,16.5C 660.5,19.5 660.5,22.5 660.5,25.5C 654.167,25.5 647.833,25.5 641.5,25.5C 641.432,21.4296 642.432,17.763 644.5,14.5 Z"/></g>
<g><path style="opacity:1" fill="#66a5a7" d="M 697.5,13.5 C 703.206,13.1712 708.872,13.5046 714.5,14.5C 715.752,17.7621 716.752,21.0954 717.5,24.5C 711.193,25.6639 704.859,25.8306 698.5,25C 697.54,21.27 697.207,17.4367 697.5,13.5 Z"/></g>
<g><path style="opacity:1" fill="#65a4a6" d="M 641.5,32.5 C 647.833,32.5 654.167,32.5 660.5,32.5C 660.395,36.5483 660.728,40.5483 661.5,44.5C 655.5,44.5 649.5,44.5 643.5,44.5C 642.833,40.5 642.167,36.5 641.5,32.5 Z"/></g>
<g><path style="opacity:1" fill="#f0f5f5" d="M 683.5,38.5 C 683.735,37.9033 684.235,37.5699 685,37.5C 696.915,40.9364 708.748,44.6031 720.5,48.5C 717.683,50.8167 715.016,53.3167 712.5,56C 715.5,58.3333 718.5,60.6667 721.5,63C 723.329,64.1133 724.163,65.6133 724,67.5C 721.833,69.8333 719.667,72.1667 717.5,74.5C 713.5,71.5 709.5,68.5 705.5,65.5C 703.34,67.8313 701.34,70.3313 699.5,73C 698.833,73.6667 698.167,73.6667 697.5,73C 692.915,61.5225 688.248,50.0225 683.5,38.5 Z"/></g>
<g><path style="opacity:1" fill="#6ba7a9" d="M 649.5,51.5 C 653.884,51.1744 658.217,51.5078 662.5,52.5C 663.681,56.2285 665.015,59.8951 666.5,63.5C 665.635,64.5827 664.635,64.7494 663.5,64C 657.375,61.3706 652.709,57.204 649.5,51.5 Z"/></g>
<g><path style="opacity:1" fill="#f3f6f6" d="M 813.5,141.5 C 817.111,141.044 820.444,141.711 823.5,143.5C 830.394,141.035 837.394,140.869 844.5,143C 849.4,144.902 852.567,148.402 854,153.5C 854.667,163.5 854.667,173.5 854,183.5C 852.846,191.32 848.346,195.82 840.5,197C 834.509,197.499 828.509,197.666 822.5,197.5C 822.5,203.833 822.5,210.167 822.5,216.5C 819.5,216.5 816.5,216.5 813.5,216.5C 813.5,191.5 813.5,166.5 813.5,141.5 Z"/></g>
<g><path style="opacity:1" fill="#62a2a4" d="M 825.5,189.5 C 823.554,178.086 822.888,166.419 823.5,154.5C 823.916,152.248 825.249,150.748 827.5,150C 831.5,149.333 835.5,149.333 839.5,150C 842.773,150.94 844.606,153.107 845,156.5C 845.667,165.167 845.667,173.833 845,182.5C 844.606,185.893 842.773,188.06 839.5,189C 834.845,189.499 830.179,189.666 825.5,189.5 Z"/></g>
<g><path style="opacity:1" fill="#8bbbbc" d="M 823.5,154.5 C 822.888,166.419 823.554,178.086 825.5,189.5C 824.5,189.5 823.5,189.5 822.5,189.5C 822.172,177.655 822.505,165.988 823.5,154.5 Z"/></g>
<g><path style="opacity:1" fill="#f2f5f5" d="M 534.5,499.5 C 529.5,499.5 524.5,499.5 519.5,499.5C 519.667,486.496 519.5,473.496 519,460.5C 517.749,457.619 515.583,455.786 512.5,455C 505.833,454.333 499.167,454.333 492.5,455C 490,456.167 488.167,458 487,460.5C 486.5,473.496 486.333,486.496 486.5,499.5C 481.833,499.5 477.167,499.5 472.5,499.5C 472.5,480.167 472.5,460.833 472.5,441.5C 476.833,441.5 481.167,441.5 485.5,441.5C 485.343,442.873 485.51,444.207 486,445.5C 488.304,443.932 490.804,442.765 493.5,442C 501.222,441.188 508.889,441.522 516.5,443C 528.356,446.207 534.189,454.04 534,466.5C 534.5,477.495 534.667,488.495 534.5,499.5 Z"/></g>
<g><path style="opacity:1" fill="#f2f6f6" d="M 586.5,499.5 C 581.833,499.5 577.167,499.5 572.5,499.5C 572.068,484.775 572.568,470.108 574,455.5C 576.898,447.29 582.732,442.79 591.5,442C 598.5,441.333 605.5,441.333 612.5,442C 621.057,443.557 626.89,448.391 630,456.5C 631.383,467.779 631.883,479.112 631.5,490.5C 616.5,490.5 601.5,490.5 586.5,490.5C 586.5,493.5 586.5,496.5 586.5,499.5 Z"/></g>
<g><path style="opacity:1" fill="#f1f5f5" d="M 697.5,499.5 C 693.167,499.5 688.833,499.5 684.5,499.5C 677.975,480.591 671.641,461.591 665.5,442.5C 670.5,441.167 675.5,441.167 680.5,442.5C 686.775,461.323 692.441,480.323 697.5,499.5 Z"/></g>
<g><path style="opacity:1" fill="#f1f5f5" d="M 718.5,499.5 C 714.167,499.5 709.833,499.5 705.5,499.5C 710.167,480.167 714.833,460.833 719.5,441.5C 724.5,441.5 729.5,441.5 734.5,441.5C 729.37,460.889 724.037,480.222 718.5,499.5 Z"/></g>
<g><path style="opacity:1" fill="#f1f5f5" d="M 837.5,499.5 C 833.167,499.5 828.833,499.5 824.5,499.5C 823.851,489.527 823.851,479.694 824.5,470C 823.753,465.539 823.253,461.039 823,456.5C 821.208,453.666 818.541,452.332 815,452.5C 809.825,452.673 806.825,455.34 806,460.5C 805.5,473.496 805.333,486.496 805.5,499.5C 801.167,499.5 796.833,499.5 792.5,499.5C 792.667,485.829 792.5,472.163 792,458.5C 791.035,454.198 788.368,452.198 784,452.5C 779.8,452.098 776.8,453.765 775,457.5C 774.5,471.496 774.333,485.496 774.5,499.5C 769.833,499.5 765.167,499.5 760.5,499.5C 760.5,480.167 760.5,460.833 760.5,441.5C 764.833,441.5 769.167,441.5 773.5,441.5C 773.03,445.97 774.03,446.47 776.5,443C 785.657,440.199 793.991,441.699 801.5,447.5C 805.709,443.564 810.709,441.564 816.5,441.5C 828.164,440.739 834.997,446.073 837,457.5C 837.5,471.496 837.667,485.496 837.5,499.5 Z"/></g>
<g><path style="opacity:1" fill="#f3f6f6" d="M 922.5,499.5 C 917.833,499.5 913.167,499.5 908.5,499.5C 908.5,495.167 908.5,490.833 908.5,486.5C 900.16,486.334 891.827,486.5 883.5,487C 878.436,489.629 876.436,493.796 877.5,499.5C 872.5,499.5 867.5,499.5 862.5,499.5C 862.674,496.126 863.174,492.793 864,489.5C 866.781,480.21 872.948,475.21 882.5,474.5C 890.333,475.153 898.166,475.487 906,475.5C 906.995,474.934 907.828,474.267 908.5,473.5C 908.666,469.486 908.499,465.486 908,461.5C 906.407,457.113 903.241,454.779 898.5,454.5C 888.932,453.81 879.265,453.143 869.5,452.5C 869.5,448.833 869.5,445.167 869.5,441.5C 881.547,441.135 893.547,441.635 905.5,443C 914.342,445.176 919.842,450.676 922,459.5C 922.5,472.829 922.667,486.163 922.5,499.5 Z"/></g>
<g><path style="opacity:1" fill="#f2f5f5" d="M 1027.5,499.5 C 1022.5,499.5 1017.5,499.5 1012.5,499.5C 1012.67,486.496 1012.5,473.496 1012,460.5C 1011.22,458.714 1010.05,457.214 1008.5,456C 1000.91,454.437 993.246,454.104 985.5,455C 983,456.167 981.167,458 980,460.5C 979.5,473.496 979.333,486.496 979.5,499.5C 974.833,499.5 970.167,499.5 965.5,499.5C 965.5,480.167 965.5,460.833 965.5,441.5C 969.833,441.5 974.167,441.5 978.5,441.5C 978.343,442.873 978.51,444.207 979,445.5C 981.304,443.932 983.804,442.765 986.5,442C 992.833,441.333 999.167,441.333 1005.5,442C 1019.7,443.85 1026.86,452.017 1027,466.5C 1027.5,477.495 1027.67,488.495 1027.5,499.5 Z"/></g>
<g><path style="opacity:1" fill="#5fa1a3" d="M 792.5,499.5 C 786.5,499.5 780.5,499.5 774.5,499.5C 774.333,485.496 774.5,471.496 775,457.5C 776.8,453.765 779.8,452.098 784,452.5C 788.368,452.198 791.035,454.198 792,458.5C 792.5,472.163 792.667,485.829 792.5,499.5 Z"/></g>
<g><path style="opacity:1" fill="#61a2a4" d="M 824.5,499.5 C 818.167,499.5 811.833,499.5 805.5,499.5C 805.333,486.496 805.5,473.496 806,460.5C 806.825,455.34 809.825,452.673 815,452.5C 818.541,452.332 821.208,453.666 823,456.5C 823.253,461.039 823.753,465.539 824.5,470C 823.851,479.694 823.851,489.527 824.5,499.5 Z"/></g>
<g><path style="opacity:1" fill="#d9e8e8" d="M 869.5,452.5 C 879.265,453.143 888.932,453.81 898.5,454.5C 888.442,455.14 878.775,454.473 869.5,452.5 Z"/></g>
<g><path style="opacity:1" fill="#5da0a2" d="M 519.5,499.5 C 508.5,499.5 497.5,499.5 486.5,499.5C 486.333,486.496 486.5,473.496 487,460.5C 488.167,458 490,456.167 492.5,455C 499.167,454.333 505.833,454.333 512.5,455C 515.583,455.786 517.749,457.619 519,460.5C 519.5,473.496 519.667,486.496 519.5,499.5 Z"/></g>
<g><path style="opacity:1" fill="#5ea0a2" d="M 592.5,454.5 C 612.814,449.486 621.147,457.153 617.5,477.5C 607.167,477.5 596.833,477.5 586.5,477.5C 586.13,471.075 586.63,464.742 588,458.5C 589.397,456.93 590.897,455.596 592.5,454.5 Z"/></g>
<g><path style="opacity:1" fill="#5da0a2" d="M 1012.5,499.5 C 1001.5,499.5 990.5,499.5 979.5,499.5C 979.333,486.496 979.5,473.496 980,460.5C 981.167,458 983,456.167 985.5,455C 993.246,454.104 1000.91,454.437 1008.5,456C 1010.05,457.214 1011.22,458.714 1012,460.5C 1012.5,473.496 1012.67,486.496 1012.5,499.5 Z"/></g>
<g><path style="opacity:1" fill="#d5e5e6" d="M 882.5,474.5 C 890.984,473.507 899.651,473.174 908.5,473.5C 907.828,474.267 906.995,474.934 906,475.5C 898.166,475.487 890.333,475.153 882.5,474.5 Z"/></g>
<g><path style="opacity:1" fill="#5ea0a2" d="M 908.5,499.5 C 898.167,499.5 887.833,499.5 877.5,499.5C 876.436,493.796 878.436,489.629 883.5,487C 891.827,486.5 900.16,486.334 908.5,486.5C 908.5,490.833 908.5,495.167 908.5,499.5 Z"/></g>
</svg>
