<?xml version="1.0" encoding="UTF-8"?>
<!DOCTYPE svg PUBLIC "-//W3C//DTD SVG 1.1//EN" "http://www.w3.org/Graphics/SVG/1.1/DTD/svg11.dtd">
<svg xmlns="http://www.w3.org/2000/svg" version="1.1" width="1640px" height="624px" style="shape-rendering:geometricPrecision; text-rendering:geometricPrecision; image-rendering:optimizeQuality; fill-rule:evenodd; clip-rule:evenodd" xmlns:xlink="http://www.w3.org/1999/xlink">
<g><path style="opacity:1" fill="#5da0a2" d="M -0.5,-0.5 C 201.167,-0.5 402.833,-0.5 604.5,-0.5C 604.5,120.5 604.5,241.5 604.5,362.5C 747.833,362.5 891.167,362.5 1034.5,362.5C 1034.5,241.5 1034.5,120.5 1034.5,-0.5C 1236.17,-0.5 1437.83,-0.5 1639.5,-0.5C 1639.5,207.5 1639.5,415.5 1639.5,623.5C 1351.17,623.5 1062.83,623.5 774.5,623.5C 783.85,589.59 793.516,555.757 803.5,522C 797.916,521.194 792.416,521.361 787,522.5C 780.487,547.555 773.82,572.555 767,597.5C 759.186,572.239 751.686,546.905 744.5,521.5C 738.794,521.171 733.128,521.505 727.5,522.5C 737.432,552.463 747.266,582.463 757,612.5C 758.399,613.227 759.899,613.727 761.5,614C 760.115,617.039 759.115,620.206 758.5,623.5C 682.5,623.5 606.5,623.5 530.5,623.5C 530.5,620.167 530.5,616.833 530.5,613.5C 540.172,613.666 549.839,613.5 559.5,613C 570.724,611.436 577.891,605.27 581,594.5C 582.984,576.171 582.984,557.837 581,539.5C 577.674,529.071 570.508,523.238 559.5,522C 552.167,521.333 544.833,521.333 537.5,522C 534.804,522.765 532.304,523.932 530,525.5C 529.51,524.207 529.343,522.873 529.5,521.5C 524.5,521.5 519.5,521.5 514.5,521.5C 514.5,555.5 514.5,589.5 514.5,623.5C 342.833,623.5 171.167,623.5 -0.5,623.5C -0.5,415.5 -0.5,207.5 -0.5,-0.5 Z"/></g>
<g><path style="opacity:1" fill="#f3f7f6" d="M 604.5,-0.5 C 607.833,-0.5 611.167,-0.5 614.5,-0.5C 614.5,117.167 614.5,234.833 614.5,352.5C 751.167,352.5 887.833,352.5 1024.5,352.5C 1024.5,234.833 1024.5,117.167 1024.5,-0.5C 1027.83,-0.5 1031.17,-0.5 1034.5,-0.5C 1034.5,120.5 1034.5,241.5 1034.5,362.5C 891.167,362.5 747.833,362.5 604.5,362.5C 604.5,241.5 604.5,120.5 604.5,-0.5 Z"/></g>
<g><path style="opacity:1" fill="#5da0a2" d="M 614.5,-0.5 C 751.167,-0.5 887.833,-0.5 1024.5,-0.5C 1024.5,117.167 1024.5,234.833 1024.5,352.5C 887.833,352.5 751.167,352.5 614.5,352.5C 614.5,234.833 614.5,117.167 614.5,-0.5 Z"/></g>
<g><path style="opacity:1" fill="#eff4f4" d="M 754.5,56.5 C 754.5,55.5 754.5,54.5 754.5,53.5C 746.648,53.1746 738.982,53.508 731.5,54.5C 730.248,65.3527 730.248,76.3527 731.5,87.5C 738.483,85.8769 742.817,88.3769 744.5,95C 740.848,95.4986 737.182,95.6653 733.5,95.5C 734.15,102.468 737.15,108.135 742.5,112.5C 744.833,110.833 746.833,108.833 748.5,106.5C 750.763,110.624 752.429,114.958 753.5,119.5C 728.051,123.359 709.218,114.025 697,91.5C 687.177,62.6293 695.344,40.4626 721.5,25C 745.025,16.1029 765.192,20.9363 782,39.5C 791.61,52.7112 794.776,67.3779 791.5,83.5C 784.972,83.907 782.306,80.907 783.5,74.5C 775.16,74.6664 766.827,74.4997 758.5,74C 750.833,71.6667 743.167,69.3333 735.5,67C 741.825,66.5005 748.158,66.3338 754.5,66.5C 754.5,63.1667 754.5,59.8333 754.5,56.5 Z"/></g>
<g><path style="opacity:1" fill="#5fa1a3" d="M 751.5,43.5 C 745.926,45.4533 739.926,46.12 733.5,45.5C 734.108,40.3784 735.942,35.7117 739,31.5C 742.6,28.646 745.6,29.3127 748,33.5C 749.474,36.7556 750.64,40.089 751.5,43.5 Z"/></g>
<g><path style="opacity:1" fill="#61a2a4" d="M 726.5,31.5 C 727.552,31.3505 728.552,31.5172 729.5,32C 726.953,36.138 725.286,40.638 724.5,45.5C 719.489,45.6659 714.489,45.4993 709.5,45C 714.508,39.5175 720.175,35.0175 726.5,31.5 Z"/></g>
<g><path style="opacity:1" fill="#60a2a4" d="M 756.5,31.5 C 763.824,34.505 770.157,39.005 775.5,45C 770.511,45.4993 765.511,45.6659 760.5,45.5C 759.756,40.6096 758.423,35.9429 756.5,31.5 Z"/></g>
<g><path style="opacity:1" fill="#eef4f4" d="M 920.5,41.5 C 923.297,43.795 925.964,46.295 928.5,49C 862.167,115.333 795.833,181.667 729.5,248C 726.564,247.107 724.064,245.274 722,242.5C 721.333,241.833 721.333,241.167 722,240.5C 788.368,174.299 854.535,107.965 920.5,41.5 Z"/></g>
<g><path style="opacity:1" fill="#cce0e0" d="M 751.5,43.5 C 752.404,44.209 752.737,45.209 752.5,46.5C 745.978,46.8235 739.645,46.4902 733.5,45.5C 739.926,46.12 745.926,45.4533 751.5,43.5 Z"/></g>
<g><path style="opacity:1" fill="#b2d1d2" d="M 704.5,54.5 C 710.645,53.5098 716.978,53.1765 723.5,53.5C 723.737,54.791 723.404,55.791 722.5,56.5C 716.926,54.5467 710.926,53.88 704.5,54.5 Z"/></g>
<g><path style="opacity:1" fill="#afcfd0" d="M 731.5,54.5 C 738.982,53.508 746.648,53.1746 754.5,53.5C 754.5,54.5 754.5,55.5 754.5,56.5C 747.108,54.5861 739.441,53.9194 731.5,54.5 Z"/></g>
<g><path style="opacity:1" fill="#5ea0a2" d="M 704.5,54.5 C 710.926,53.88 716.926,54.5467 722.5,56.5C 722.384,59.8599 722.051,63.1933 721.5,66.5C 714.833,66.5 708.167,66.5 701.5,66.5C 701.898,62.2393 702.898,58.2393 704.5,54.5 Z"/></g>
<g><path style="opacity:1" fill="#5ea0a2" d="M 762.5,54.5 C 768.868,54.1703 775.202,54.5037 781.5,55.5C 782.681,59.0716 783.348,62.7383 783.5,66.5C 776.833,66.5 770.167,66.5 763.5,66.5C 763.354,62.4809 763.021,58.4809 762.5,54.5 Z"/></g>
<g><path style="opacity:1" fill="#8ababb" d="M 701.5,75.5 C 708.313,74.5088 715.313,74.1755 722.5,74.5C 722.5,76.1667 722.5,77.8333 722.5,79.5C 721.566,78.4324 721.232,77.099 721.5,75.5C 714.833,75.5 708.167,75.5 701.5,75.5 Z"/></g>
<g><path style="opacity:1" fill="#61a2a4" d="M 701.5,75.5 C 708.167,75.5 714.833,75.5 721.5,75.5C 721.232,77.099 721.566,78.4324 722.5,79.5C 722.5,82.1667 722.5,84.8333 722.5,87.5C 716.463,87.8293 710.463,87.4959 704.5,86.5C 702.719,83.0442 701.719,79.3776 701.5,75.5 Z"/></g>
<g><path style="opacity:1" fill="#f0f4f4" d="M 747.5,79.5 C 761.111,82.7591 774.444,86.9257 787.5,92C 784.984,94.6833 782.317,97.1833 779.5,99.5C 783.659,103.49 787.993,107.324 792.5,111C 790.037,114.465 787.204,117.631 784,120.5C 779.667,116.833 775.333,113.167 771,109.5C 769.046,113.282 766.546,116.615 763.5,119.5C 757.579,106.404 752.246,93.0703 747.5,79.5 Z"/></g>
<g><path style="opacity:1" fill="#60a2a3" d="M 709.5,96.5 C 714.305,95.5128 719.305,95.1795 724.5,95.5C 725.326,99.8131 726.66,103.98 728.5,108C 728.167,108.5 727.833,109 727.5,109.5C 720.41,106.627 714.41,102.293 709.5,96.5 Z"/></g>
<g><path style="opacity:1" fill="#f1f5f5" d="M 889.5,193.5 C 893.434,193.021 897.101,193.688 900.5,195.5C 909.182,192.784 917.848,192.95 926.5,196C 931.023,198.876 933.523,203.043 934,208.5C 934.667,219.167 934.667,229.833 934,240.5C 932.614,248.22 928.114,253.053 920.5,255C 913.508,255.5 906.508,255.666 899.5,255.5C 899.5,262.5 899.5,269.5 899.5,276.5C 896.167,276.5 892.833,276.5 889.5,276.5C 889.5,248.833 889.5,221.167 889.5,193.5 Z"/></g>
<g><path style="opacity:1" fill="#5da0a2" d="M 916.5,245.5 C 911.167,245.5 905.833,245.5 900.5,245.5C 900.5,232.5 900.5,219.5 900.5,206.5C 902.889,203.107 906.223,201.773 910.5,202.5C 915.248,202.139 919.415,203.472 923,206.5C 923.667,218.167 923.667,229.833 923,241.5C 921.728,244.222 919.561,245.556 916.5,245.5 Z"/></g>
<g><path style="opacity:1" fill="#83b7b8" d="M 900.5,206.5 C 900.5,219.5 900.5,232.5 900.5,245.5C 905.833,245.5 911.167,245.5 916.5,245.5C 911.025,246.489 905.358,246.822 899.5,246.5C 899.171,232.99 899.504,219.656 900.5,206.5 Z"/></g>
<g><path style="opacity:1" fill="#f1f5f5" d="M 530.5,623.5 C 525.167,623.5 519.833,623.5 514.5,623.5C 514.5,589.5 514.5,555.5 514.5,521.5C 519.5,521.5 524.5,521.5 529.5,521.5C 529.343,522.873 529.51,524.207 530,525.5C 532.304,523.932 534.804,522.765 537.5,522C 544.833,521.333 552.167,521.333 559.5,522C 570.508,523.238 577.674,529.071 581,539.5C 582.984,557.837 582.984,576.171 581,594.5C 577.891,605.27 570.724,611.436 559.5,613C 549.839,613.5 540.172,613.666 530.5,613.5C 530.5,616.833 530.5,620.167 530.5,623.5 Z"/></g>
<g><path style="opacity:1" fill="#f1f5f5" d="M 645.5,521.5 C 653.507,521.334 661.507,521.5 669.5,522C 680.639,523.806 687.139,530.306 689,541.5C 689.5,552.495 689.667,563.495 689.5,574.5C 673.167,574.5 656.833,574.5 640.5,574.5C 640.334,580.176 640.501,585.843 641,591.5C 641.883,594.102 643.383,596.269 645.5,598C 658.106,599.42 670.772,599.92 683.5,599.5C 683.5,604.167 683.5,608.833 683.5,613.5C 669.782,613.906 656.115,613.406 642.5,612C 631.775,608.415 625.942,600.915 625,589.5C 624.092,572.794 624.425,556.127 626,539.5C 628.599,529.282 635.099,523.282 645.5,521.5 Z"/></g>
<g><path style="opacity:1" fill="#f1f5f5" d="M 774.5,623.5 C 769.167,623.5 763.833,623.5 758.5,623.5C 759.115,620.206 760.115,617.039 761.5,614C 759.899,613.727 758.399,613.227 757,612.5C 747.266,582.463 737.432,552.463 727.5,522.5C 733.128,521.505 738.794,521.171 744.5,521.5C 751.686,546.905 759.186,572.239 767,597.5C 773.82,572.555 780.487,547.555 787,522.5C 792.416,521.361 797.916,521.194 803.5,522C 793.516,555.757 783.85,589.59 774.5,623.5 Z"/></g>
<g><path style="opacity:1" fill="#f1f5f5" d="M 831.5,521.5 C 836.167,521.5 840.833,521.5 845.5,521.5C 845.281,522.675 845.614,523.675 846.5,524.5C 855.24,520.492 863.907,520.659 872.5,525C 873.667,526.167 874.833,527.333 876,528.5C 882.537,521.958 890.371,519.791 899.5,522C 909.763,524.326 914.93,530.826 915,541.5C 915.5,565.498 915.667,589.498 915.5,613.5C 910.5,613.5 905.5,613.5 900.5,613.5C 900.667,588.498 900.5,563.498 900,538.5C 898.2,534.765 895.2,533.098 891,533.5C 885.958,533.861 882.625,536.528 881,541.5C 880.5,565.498 880.333,589.498 880.5,613.5C 875.5,613.5 870.5,613.5 865.5,613.5C 865.667,588.498 865.5,563.498 865,538.5C 863.677,535.003 861.177,533.336 857.5,533.5C 852.031,533.028 848.531,535.361 847,540.5C 846.5,564.831 846.333,589.164 846.5,613.5C 841.5,613.5 836.5,613.5 831.5,613.5C 831.5,582.833 831.5,552.167 831.5,521.5 Z"/></g>
<g><path style="opacity:1" fill="#f1f5f5" d="M 951.5,521.5 C 963.171,521.333 974.838,521.5 986.5,522C 999.539,523.372 1007.04,530.539 1009,543.5C 1009.33,561.5 1009.67,579.5 1010,597.5C 1012.42,599.585 1015.25,600.585 1018.5,600.5C 1018.5,604.833 1018.5,609.167 1018.5,613.5C 1014.15,613.666 1009.82,613.499 1005.5,613C 1002.78,612.122 1000.45,610.622 998.5,608.5C 996.507,610.499 994.173,611.999 991.5,613C 981.833,613.667 972.167,613.667 962.5,613C 948.67,610.061 942.336,601.395 943.5,587C 941.99,571.311 948.657,561.311 963.5,557C 973.494,556.5 983.494,556.334 993.5,556.5C 993.666,552.154 993.499,547.821 993,543.5C 991.755,539.258 988.922,536.758 984.5,536C 973.505,535.5 962.505,535.333 951.5,535.5C 951.5,530.833 951.5,526.167 951.5,521.5 Z"/></g>
<g><path style="opacity:1" fill="#f1f5f5" d="M 1056.5,521.5 C 1061.5,521.5 1066.5,521.5 1071.5,521.5C 1071.34,522.873 1071.51,524.207 1072,525.5C 1074.3,523.932 1076.8,522.765 1079.5,522C 1087.17,521.333 1094.83,521.333 1102.5,522C 1116.38,524.214 1123.54,532.38 1124,546.5C 1124.5,568.831 1124.67,591.164 1124.5,613.5C 1119.17,613.5 1113.83,613.5 1108.5,613.5C 1108.67,589.831 1108.5,566.164 1108,542.5C 1103.54,536.098 1097.37,533.765 1089.5,535.5C 1085.83,535.667 1082.17,535.833 1078.5,536C 1075.62,537.251 1073.79,539.417 1073,542.5C 1072.5,566.164 1072.33,589.831 1072.5,613.5C 1067.17,613.5 1061.83,613.5 1056.5,613.5C 1056.5,582.833 1056.5,552.167 1056.5,521.5 Z"/></g>
<g><path style="opacity:1" fill="#5da0a2" d="M 536.5,535.5 C 543.508,535.334 550.508,535.5 557.5,536C 560.548,536.606 563.048,538.106 565,540.5C 566.637,557.075 566.97,573.742 566,590.5C 565.167,595.333 562.333,598.167 557.5,599C 548.506,599.5 539.506,599.666 530.5,599.5C 530.333,580.497 530.5,561.497 531,542.5C 531.967,539.379 533.8,537.046 536.5,535.5 Z"/></g>
<g><path style="opacity:1" fill="#5ea1a2" d="M 646.5,535.5 C 654.253,535.104 661.92,535.604 669.5,537C 671.359,538.558 672.859,540.391 674,542.5C 674.499,548.491 674.666,554.491 674.5,560.5C 663.167,560.5 651.833,560.5 640.5,560.5C 640.334,554.158 640.5,547.825 641,541.5C 642.36,538.977 644.193,536.977 646.5,535.5 Z"/></g>
<g><path style="opacity:1" fill="#5da0a2" d="M 966.5,570.5 C 975.5,570.5 984.5,570.5 993.5,570.5C 993.914,579.582 993.414,588.582 992,597.5C 991.25,598.126 990.416,598.626 989.5,599C 980.833,599.667 972.167,599.667 963.5,599C 962.667,598.167 961.833,597.333 961,596.5C 959.456,589.916 959.123,583.249 960,576.5C 962.063,574.266 964.229,572.266 966.5,570.5 Z"/></g>
</svg>
