<?xml version="1.0" encoding="UTF-8"?>
<!DOCTYPE svg PUBLIC "-//W3C//DTD SVG 1.1//EN" "http://www.w3.org/Graphics/SVG/1.1/DTD/svg11.dtd">
<svg xmlns="http://www.w3.org/2000/svg" version="1.1" width="1000px" height="1000px" style="shape-rendering:geometricPrecision; text-rendering:geometricPrecision; image-rendering:optimizeQuality; fill-rule:evenodd; clip-rule:evenodd" xmlns:xlink="http://www.w3.org/1999/xlink">
<g><path style="opacity:1" fill="#5da0a2" d="M -0.5,-0.5 C 332.833,-0.5 666.167,-0.5 999.5,-0.5C 999.5,332.833 999.5,666.167 999.5,999.5C 666.167,999.5 332.833,999.5 -0.5,999.5C -0.5,666.167 -0.5,332.833 -0.5,-0.5 Z"/></g>
<g><path style="opacity:1" fill="#f3f7f6" d="M 368.5,268.5 C 455.833,268.5 543.167,268.5 630.5,268.5C 630.5,355.833 630.5,443.167 630.5,530.5C 543.167,530.5 455.833,530.5 368.5,530.5C 368.5,443.167 368.5,355.833 368.5,268.5 Z"/></g>
<g><path style="opacity:1" fill="#5da0a2" d="M 374.5,274.5 C 457.833,274.5 541.167,274.5 624.5,274.5C 624.5,357.833 624.5,441.167 624.5,524.5C 541.167,524.5 457.833,524.5 374.5,524.5C 374.5,441.167 374.5,357.833 374.5,274.5 Z"/></g>
<g><path style="opacity:1" fill="#edf3f3" d="M 451.5,351.5 C 453.607,350.532 455.941,350.198 458.5,350.5C 459.289,350.217 459.956,349.717 460.5,349C 459.577,346.959 459.244,344.792 459.5,342.5C 454.833,342.5 450.167,342.5 445.5,342.5C 444.637,349.068 444.637,355.735 445.5,362.5C 449.445,361.573 452.112,362.906 453.5,366.5C 451.604,367.466 449.604,367.799 447.5,367.5C 447.506,370.85 448.506,373.85 450.5,376.5C 453.129,378.05 454.963,377.384 456,374.5C 457.256,376.754 458.423,379.088 459.5,381.5C 441.56,384.774 429.393,377.774 423,360.5C 420.157,341.698 427.657,329.198 445.5,323C 461.986,320.481 473.819,326.647 481,341.5C 483.699,347.937 483.865,354.271 481.5,360.5C 480.264,359.754 478.93,359.421 477.5,359.5C 477.5,358.167 477.5,356.833 477.5,355.5C 468.489,356.239 459.823,354.906 451.5,351.5 Z"/></g>
<g><path style="opacity:1" fill="#65a4a6" d="M 451.5,327.5 C 455.978,329.164 458.311,332.498 458.5,337.5C 454.445,337.824 450.445,337.491 446.5,336.5C 447.807,333.22 449.473,330.22 451.5,327.5 Z"/></g>
<g><path style="opacity:1" fill="#67a5a7" d="M 442.5,328.5 C 443.376,328.369 444.043,328.702 444.5,329.5C 443.051,331.611 442.051,333.944 441.5,336.5C 438.554,337.655 435.554,337.821 432.5,337C 435.689,333.919 439.022,331.086 442.5,328.5 Z"/></g>
<g><path style="opacity:1" fill="#5fa1a3" d="M 461.5,329.5 C 466.089,330.58 469.756,333.08 472.5,337C 469.518,337.498 466.518,337.665 463.5,337.5C 463.037,334.779 462.371,332.112 461.5,329.5 Z"/></g>
<g><path style="opacity:1" fill="#ecf2f2" d="M 560.5,335.5 C 563.323,336.148 564.823,337.814 565,340.5C 524.667,380.833 484.333,421.167 444,461.5C 442.5,460 441,458.5 439.5,457C 480.035,416.632 520.368,376.132 560.5,335.5 Z"/></g>
<g><path style="opacity:1" fill="#63a3a5" d="M 428.5,342.5 C 432.5,342.5 436.5,342.5 440.5,342.5C 440.752,345.32 440.252,347.986 439,350.5C 435.467,349.839 431.634,349.506 427.5,349.5C 427.674,347.139 428.007,344.806 428.5,342.5 Z"/></g>
<g><path style="opacity:1" fill="#61a2a4" d="M 464.5,342.5 C 468.555,342.176 472.555,342.509 476.5,343.5C 477.348,345.409 477.682,347.409 477.5,349.5C 473.5,349.5 469.5,349.5 465.5,349.5C 465.326,347.139 464.993,344.806 464.5,342.5 Z"/></g>
<g><path style="opacity:1" fill="#bbd7d7" d="M 458.5,350.5 C 455.941,350.198 453.607,350.532 451.5,351.5C 450.527,351.013 449.527,350.513 448.5,350C 452.027,349.192 455.36,349.359 458.5,350.5 Z"/></g>
<g><path style="opacity:1" fill="#60a2a4" d="M 427.5,355.5 C 431.555,355.176 435.555,355.509 439.5,356.5C 440.348,358.409 440.682,360.409 440.5,362.5C 436.818,362.665 433.152,362.499 429.5,362C 427.984,360.103 427.317,357.936 427.5,355.5 Z"/></g>
<g><path style="opacity:1" fill="#f1f5f5" d="M 455.5,357.5 C 463.543,360.236 471.543,363.07 479.5,366C 477.639,367.028 476.305,368.528 475.5,370.5C 478.027,372.605 480.36,374.939 482.5,377.5C 481.15,380.222 479.15,381.722 476.5,382C 474.627,379.791 472.46,377.958 470,376.5C 468.692,378.641 467.192,380.641 465.5,382.5C 462.162,374.148 458.828,365.815 455.5,357.5 Z"/></g>
<g><path style="opacity:1" fill="#6ba8a9" d="M 432.5,368.5 C 435.304,367.362 438.304,367.195 441.5,368C 442.068,370.684 443.068,373.184 444.5,375.5C 443.21,376.408 441.877,376.241 440.5,375C 437.669,372.999 435.003,370.833 432.5,368.5 Z"/></g>
<g><path style="opacity:1" fill="#f1f5f5" d="M 542.5,427.5 C 548.75,427.835 555.083,428.002 561.5,428C 565.36,429.193 567.86,431.693 569,435.5C 569.667,442.167 569.667,448.833 569,455.5C 568.698,460.463 566.198,463.629 561.5,465C 557.179,465.499 552.846,465.666 548.5,465.5C 548.5,469.833 548.5,474.167 548.5,478.5C 546.5,478.5 544.5,478.5 542.5,478.5C 542.5,461.5 542.5,444.5 542.5,427.5 Z"/></g>
<g><path style="opacity:1" fill="#60a2a3" d="M 550.5,433.5 C 553.85,433.335 557.183,433.502 560.5,434C 561.308,434.308 561.975,434.808 562.5,435.5C 563.632,442.783 563.799,450.117 563,457.5C 562.25,458.126 561.416,458.626 560.5,459C 556.514,459.499 552.514,459.666 548.5,459.5C 547.908,450.566 548.575,441.899 550.5,433.5 Z"/></g>
<g><path style="opacity:1" fill="#f2f5f5" d="M 313.5,627.5 C 317.111,627.044 320.444,627.711 323.5,629.5C 330.379,627.149 337.379,626.983 344.5,629C 350.062,630.265 353.228,633.765 354,639.5C 354.667,650.167 354.667,660.833 354,671.5C 352.367,678.135 348.2,681.968 341.5,683C 335.175,683.5 328.842,683.666 322.5,683.5C 322.5,689.833 322.5,696.167 322.5,702.5C 319.5,702.5 316.5,702.5 313.5,702.5C 313.5,677.5 313.5,652.5 313.5,627.5 Z"/></g>
<g><path style="opacity:1" fill="#f2f6f6" d="M 394.5,674.5 C 401.313,675.491 408.313,675.825 415.5,675.5C 415.5,678.167 415.5,680.833 415.5,683.5C 407.826,683.666 400.159,683.5 392.5,683C 386.816,681.976 382.983,678.809 381,673.5C 380.333,661.5 380.333,649.5 381,637.5C 382.265,631.938 385.765,628.772 391.5,628C 399.045,626.874 406.379,627.54 413.5,630C 416.754,632.342 418.588,635.509 419,639.5C 419.5,646.158 419.666,652.825 419.5,659.5C 409.5,659.5 399.5,659.5 389.5,659.5C 389.334,663.514 389.501,667.514 390,671.5C 391.129,673.141 392.629,674.141 394.5,674.5 Z"/></g>
<g><path style="opacity:1" fill="#f0f4f5" d="M 451.5,702.5 C 451.5,699.833 451.5,697.167 451.5,694.5C 454.059,694.802 456.393,694.468 458.5,693.5C 459.458,693.047 460.292,692.381 461,691.5C 461.761,688.947 462.594,686.447 463.5,684C 462.552,683.517 461.552,683.351 460.5,683.5C 454.441,664.988 448.775,646.321 443.5,627.5C 446.833,627.5 450.167,627.5 453.5,627.5C 457.698,642.967 462.198,658.3 467,673.5C 471.156,658.543 475.156,643.543 479,628.5C 482.057,627.549 485.223,627.216 488.5,627.5C 482.487,651.395 475.654,675.061 468,698.5C 466.421,700.041 464.587,701.208 462.5,702C 458.848,702.499 455.182,702.665 451.5,702.5 Z"/></g>
<g><path style="opacity:1" fill="#f2f6f6" d="M 506.5,627.5 C 509.167,627.5 511.833,627.5 514.5,627.5C 514.628,630.774 515.961,630.941 518.5,628C 524.114,626.676 529.114,627.843 533.5,631.5C 540.5,626.167 547.5,626.167 554.5,631.5C 555.934,633.22 556.767,635.22 557,637.5C 557.5,652.83 557.667,668.163 557.5,683.5C 554.5,683.5 551.5,683.5 548.5,683.5C 548.667,668.163 548.5,652.83 548,637.5C 543.982,634.561 540.315,634.895 537,638.5C 536.5,653.496 536.333,668.496 536.5,683.5C 533.5,683.5 530.5,683.5 527.5,683.5C 527.667,668.496 527.5,653.496 527,638.5C 523.333,634.5 519.667,634.5 516,638.5C 515.5,653.496 515.333,668.496 515.5,683.5C 512.5,683.5 509.5,683.5 506.5,683.5C 506.5,664.833 506.5,646.167 506.5,627.5 Z"/></g>
<g><path style="opacity:1" fill="#f2f6f6" d="M 580.5,627.5 C 588.174,627.334 595.841,627.5 603.5,628C 609.159,628.996 612.993,632.162 615,637.5C 615.167,649.514 615.667,661.514 616.5,673.5C 618.059,674.074 619.559,674.74 621,675.5C 621.497,678.146 621.664,680.813 621.5,683.5C 617.04,684.115 613.04,683.115 609.5,680.5C 608.3,681.531 606.966,682.365 605.5,683C 599.167,683.667 592.833,683.667 586.5,683C 578.303,680.671 574.969,675.171 576.5,666.5C 575.128,657.393 578.795,651.559 587.5,649C 593.825,648.5 600.158,648.334 606.5,648.5C 606.665,645.482 606.498,642.482 606,639.5C 605.167,638.667 604.333,637.833 603.5,637C 595.946,635.568 588.279,635.068 580.5,635.5C 580.5,632.833 580.5,630.167 580.5,627.5 Z"/></g>
<g><path style="opacity:1" fill="#f1f5f5" d="M 644.5,627.5 C 648.111,627.044 651.444,627.711 654.5,629.5C 660.656,627.468 666.989,626.968 673.5,628C 680,629.167 683.833,633 685,639.5C 685.5,654.163 685.667,668.83 685.5,683.5C 682.167,683.5 678.833,683.5 675.5,683.5C 675.833,668.485 675.499,653.485 674.5,638.5C 671.888,636.013 668.721,635.013 665,635.5C 660.536,634.781 656.869,636.114 654,639.5C 653.5,654.163 653.333,668.83 653.5,683.5C 650.5,683.5 647.5,683.5 644.5,683.5C 644.5,664.833 644.5,646.167 644.5,627.5 Z"/></g>
<g><path style="opacity:1" fill="#5ea0a2" d="M 339.5,674.5 C 334.167,674.5 328.833,674.5 323.5,674.5C 323.5,662.833 323.5,651.167 323.5,639.5C 325.889,636.107 329.223,634.773 333.5,635.5C 337.299,635.087 340.633,636.087 343.5,638.5C 344.666,649.485 344.832,660.485 344,671.5C 342.871,673.141 341.371,674.141 339.5,674.5 Z"/></g>
<g><path style="opacity:1" fill="#61a2a4" d="M 409.5,639.5 C 409.5,643.167 409.5,646.833 409.5,650.5C 402.833,650.5 396.167,650.5 389.5,650.5C 387.666,637.836 392.999,633.003 405.5,636C 407.324,636.66 408.657,637.827 409.5,639.5 Z"/></g>
<g><path style="opacity:1" fill="#8cbbbc" d="M 323.5,639.5 C 323.5,651.167 323.5,662.833 323.5,674.5C 328.833,674.5 334.167,674.5 339.5,674.5C 334.025,675.489 328.358,675.822 322.5,675.5C 322.172,663.322 322.505,651.322 323.5,639.5 Z"/></g>
<g><path style="opacity:1" fill="#92bfc0" d="M 409.5,639.5 C 410.483,643.298 410.817,647.298 410.5,651.5C 403.313,651.825 396.313,651.491 389.5,650.5C 396.167,650.5 402.833,650.5 409.5,650.5C 409.5,646.833 409.5,643.167 409.5,639.5 Z"/></g>
<g><path style="opacity:1" fill="#63a3a5" d="M 589.5,656.5 C 595.167,656.5 600.833,656.5 606.5,656.5C 606.788,662.229 606.454,667.896 605.5,673.5C 604.975,674.192 604.308,674.692 603.5,675C 589.214,679.692 583.38,674.859 586,660.5C 587.102,659.051 588.269,657.718 589.5,656.5 Z"/></g>
<g><path style="opacity:1" fill="#96c1c2" d="M 394.5,674.5 C 401.833,674.5 409.167,674.5 416.5,674.5C 416.81,677.713 416.477,680.713 415.5,683.5C 415.5,680.833 415.5,678.167 415.5,675.5C 408.313,675.825 401.313,675.491 394.5,674.5 Z"/></g>
<g><path style="opacity:1" fill="#9cc4c5" d="M 458.5,693.5 C 456.393,694.468 454.059,694.802 451.5,694.5C 451.5,697.167 451.5,699.833 451.5,702.5C 450.523,699.713 450.19,696.713 450.5,693.5C 453.167,693.5 455.833,693.5 458.5,693.5 Z"/></g>
</svg>
