<?xml version="1.0" encoding="UTF-8"?>
<!DOCTYPE svg PUBLIC "-//W3C//DTD SVG 1.1//EN" "http://www.w3.org/Graphics/SVG/1.1/DTD/svg11.dtd">
<svg xmlns="http://www.w3.org/2000/svg" version="1.1" width="1536px" height="768px" style="shape-rendering:geometricPrecision; text-rendering:geometricPrecision; image-rendering:optimizeQuality; fill-rule:evenodd; clip-rule:evenodd" xmlns:xlink="http://www.w3.org/1999/xlink">
<g><path style="opacity:1" fill="#5da0a2" d="M -0.5,-0.5 C 511.5,-0.5 1023.5,-0.5 1535.5,-0.5C 1535.5,255.5 1535.5,511.5 1535.5,767.5C 1023.5,767.5 511.5,767.5 -0.5,767.5C -0.5,511.5 -0.5,255.5 -0.5,-0.5 Z"/></g>
<g><path style="opacity:1" fill="#edf3f3" d="M 565.5,28.5 C 700.167,28.5 834.833,28.5 969.5,28.5C 969.5,162.833 969.5,297.167 969.5,431.5C 834.833,431.5 700.167,431.5 565.5,431.5C 565.5,297.167 565.5,162.833 565.5,28.5 Z"/></g>
<g><path style="opacity:1" fill="#5da0a2" d="M 575.5,38.5 C 703.5,38.5 831.5,38.5 959.5,38.5C 959.5,166.167 959.5,293.833 959.5,421.5C 831.5,421.5 703.5,421.5 575.5,421.5C 575.5,293.833 575.5,166.167 575.5,38.5 Z"/></g>
<g><path style="opacity:1" fill="#eff4f4" d="M 733.5,163.5 C 734.043,163.44 734.376,163.107 734.5,162.5C 727.532,161.503 720.532,161.17 713.5,161.5C 706.11,159.703 698.777,157.703 691.5,155.5C 696.5,154.833 701.5,154.167 706.5,153.5C 706.789,149.894 706.456,146.394 705.5,143C 698.508,142.5 691.508,142.334 684.5,142.5C 683.167,152.833 683.167,163.167 684.5,173.5C 687.898,173.18 691.232,173.513 694.5,174.5C 695.214,176.811 696.214,178.978 697.5,181C 693.833,181.333 690.167,181.667 686.5,182C 687.512,185.196 688.678,188.363 690,191.5C 693.667,198.167 697.333,198.167 701,191.5C 702.644,195.437 704.477,199.27 706.5,203C 672.391,207.238 653.057,192.238 648.5,158C 650.127,134.041 662.46,118.708 685.5,112C 711.136,108.48 729.136,118.48 739.5,142C 742.828,150.757 743.162,159.59 740.5,168.5C 738.229,169.363 735.895,169.363 733.5,168.5C 733.5,166.833 733.5,165.167 733.5,163.5 Z"/></g>
<g><path style="opacity:1" fill="#5fa1a3" d="M 693.5,119.5 C 695.722,119.178 697.556,119.845 699,121.5C 701.243,125.485 703.076,129.652 704.5,134C 698.472,134.83 692.472,134.664 686.5,133.5C 687.787,128.259 690.121,123.592 693.5,119.5 Z"/></g>
<g><path style="opacity:1" fill="#60a2a4" d="M 679.5,121.5 C 680.675,121.281 681.675,121.614 682.5,122.5C 680.562,126.314 679.229,130.314 678.5,134.5C 673.821,134.666 669.155,134.499 664.5,134C 668.832,128.861 673.832,124.695 679.5,121.5 Z"/></g>
<g><path style="opacity:1" fill="#61a2a4" d="M 708.5,121.5 C 715.616,123.905 721.616,128.071 726.5,134C 721.845,134.499 717.179,134.666 712.5,134.5C 711.567,130.035 710.234,125.702 708.5,121.5 Z"/></g>
<g><path style="opacity:1" fill="#eff4f4" d="M 861.5,131.5 C 864.563,133.051 867.229,135.218 869.5,138C 807.279,200.555 744.779,262.721 682,324.5C 679.833,322.333 677.667,320.167 675.5,318C 737.701,255.965 799.701,193.799 861.5,131.5 Z"/></g>
<g><path style="opacity:1" fill="#5fa1a3" d="M 659.5,142.5 C 665.167,142.5 670.833,142.5 676.5,142.5C 676.5,146.167 676.5,149.833 676.5,153.5C 669.825,153.666 663.158,153.5 656.5,153C 657.235,149.425 658.235,145.925 659.5,142.5 Z"/></g>
<g><path style="opacity:1" fill="#5fa1a3" d="M 714.5,142.5 C 720.176,142.334 725.843,142.501 731.5,143C 732.818,146.246 733.818,149.58 734.5,153C 727.842,153.5 721.175,153.666 714.5,153.5C 714.5,149.833 714.5,146.167 714.5,142.5 Z"/></g>
<g><path style="opacity:1" fill="#adcfcf" d="M 706.5,153.5 C 701.5,154.167 696.5,154.833 691.5,155.5C 690.527,155.013 689.527,154.513 688.5,154C 694.491,153.501 700.491,153.334 706.5,153.5 Z"/></g>
<g><path style="opacity:1" fill="#87b8ba" d="M 676.5,166.5 C 675.566,165.432 675.232,164.099 675.5,162.5C 669.074,161.88 663.074,162.547 657.5,164.5C 656.596,163.791 656.263,162.791 656.5,161.5C 663.167,161.5 669.833,161.5 676.5,161.5C 676.5,163.167 676.5,164.833 676.5,166.5 Z"/></g>
<g><path style="opacity:1" fill="#88b9bb" d="M 713.5,161.5 C 720.532,161.17 727.532,161.503 734.5,162.5C 734.376,163.107 734.043,163.44 733.5,163.5C 726.833,162.833 720.167,162.167 713.5,161.5 Z"/></g>
<g><path style="opacity:1" fill="#5da0a2" d="M 676.5,166.5 C 676.5,168.833 676.5,171.167 676.5,173.5C 670.794,173.829 665.128,173.495 659.5,172.5C 658.518,169.904 657.851,167.238 657.5,164.5C 663.074,162.547 669.074,161.88 675.5,162.5C 675.232,164.099 675.566,165.432 676.5,166.5 Z"/></g>
<g><path style="opacity:1" fill="#f1f5f5" d="M 699.5,165.5 C 712.224,169.575 724.891,173.741 737.5,178C 735.129,180.706 732.463,183.039 729.5,185C 733.833,188.667 738.167,192.333 742.5,196C 739.622,198.709 736.956,201.542 734.5,204.5C 730.208,201.543 726.208,198.21 722.5,194.5C 720.192,197.975 717.692,201.308 715,204.5C 709.82,191.479 704.654,178.479 699.5,165.5 Z"/></g>
<g><path style="opacity:1" fill="#61a2a4" d="M 665.5,181.5 C 669.833,181.5 674.167,181.5 678.5,181.5C 679.842,185.873 681.008,190.206 682,194.5C 677.93,192.766 674.097,190.6 670.5,188C 668.21,186.223 666.543,184.056 665.5,181.5 Z"/></g>
<g><path style="opacity:1" fill="#eff4f4" d="M 832.5,272.5 C 835.5,272.5 838.5,272.5 841.5,272.5C 841.351,273.552 841.517,274.552 842,275.5C 845.557,273.05 849.557,272.05 854,272.5C 859.493,272.22 864.66,273.387 869.5,276C 871.377,278.251 872.877,280.751 874,283.5C 874.667,294.833 874.667,306.167 874,317.5C 873.071,324.885 868.904,329.052 861.5,330C 855.175,330.5 848.842,330.666 842.5,330.5C 842.5,337.167 842.5,343.833 842.5,350.5C 839.167,350.5 835.833,350.5 832.5,350.5C 832.5,324.5 832.5,298.5 832.5,272.5 Z"/></g>
<g><path style="opacity:1" fill="#5da0a2" d="M 846.5,281.5 C 851.179,281.334 855.845,281.501 860.5,282C 862.333,282.5 863.5,283.667 864,285.5C 864.667,296.167 864.667,306.833 864,317.5C 863.5,319.333 862.333,320.5 860.5,321C 854.509,321.499 848.509,321.666 842.5,321.5C 842.333,309.495 842.5,297.495 843,285.5C 843.69,283.65 844.856,282.316 846.5,281.5 Z"/></g>
<g><path style="opacity:1" fill="#f2f6f6" d="M 484.5,579.5 C 489.167,579.5 493.833,579.5 498.5,579.5C 498.343,580.873 498.51,582.207 499,583.5C 503.938,580.131 509.438,578.798 515.5,579.5C 523.566,579.287 531.233,580.787 538.5,584C 543.036,587.862 545.869,592.695 547,598.5C 547.667,614.833 547.667,631.167 547,647.5C 544.281,659.447 536.781,665.614 524.5,666C 516.173,666.5 507.84,666.666 499.5,666.5C 499.5,676.5 499.5,686.5 499.5,696.5C 494.5,696.5 489.5,696.5 484.5,696.5C 484.5,657.5 484.5,618.5 484.5,579.5 Z"/></g>
<g><path style="opacity:1" fill="#f1f5f5" d="M 605.5,579.5 C 613.174,579.334 620.841,579.5 628.5,580C 638.525,582.694 644.359,589.194 646,599.5C 646.5,609.494 646.666,619.494 646.5,629.5C 631.167,629.5 615.833,629.5 600.5,629.5C 600.334,634.844 600.501,640.177 601,645.5C 602.14,649.307 604.64,651.807 608.5,653C 619.161,653.5 629.828,653.667 640.5,653.5C 640.5,657.833 640.5,662.167 640.5,666.5C 627.448,666.901 614.448,666.401 601.5,665C 594.026,662.86 589.193,658.026 587,650.5C 585.015,632.161 585.015,613.828 587,595.5C 590.005,586.317 596.171,580.984 605.5,579.5 Z"/></g>
<g><path style="opacity:1" fill="#f1f5f5" d="M 681.5,580.5 C 686.68,579.185 692.014,579.185 697.5,580.5C 704.568,604.202 711.734,627.869 719,651.5C 724.999,628.172 730.999,604.838 737,581.5C 739.383,580.234 742.05,579.568 745,579.5C 747.5,579.833 750,580.167 752.5,580.5C 742.776,615.508 732.943,650.508 723,685.5C 721.167,690 718,693.167 713.5,695C 707.258,696.37 700.925,696.87 694.5,696.5C 694.5,692.167 694.5,687.833 694.5,683.5C 698.967,683.867 703.3,683.367 707.5,682C 708.701,681.097 709.535,679.931 710,678.5C 711.095,674.615 712.261,670.782 713.5,667C 711.598,666.801 710.098,665.967 709,664.5C 700.295,636.22 691.128,608.22 681.5,580.5 Z"/></g>
<g><path style="opacity:1" fill="#f0f4f4" d="M 778.5,579.5 C 782.833,579.5 787.167,579.5 791.5,579.5C 791.343,580.873 791.51,582.207 792,583.5C 797.243,579.773 803.076,578.607 809.5,580C 813.965,580.972 817.631,583.138 820.5,586.5C 829.584,578.554 839.584,577.387 850.5,583C 854.574,586.543 856.741,591.043 857,596.5C 857.5,619.831 857.667,643.164 857.5,666.5C 852.833,666.5 848.167,666.5 843.5,666.5C 843.667,643.164 843.5,619.831 843,596.5C 840.103,591.845 835.937,590.345 830.5,592C 828.622,593.543 827.122,595.376 826,597.5C 825.5,620.498 825.333,643.498 825.5,666.5C 820.833,666.5 816.167,666.5 811.5,666.5C 811.667,643.498 811.5,620.498 811,597.5C 809.877,593.181 807.044,591.181 802.5,591.5C 797.479,591.358 794.312,593.692 793,598.5C 792.5,621.164 792.333,643.831 792.5,666.5C 787.833,666.5 783.167,666.5 778.5,666.5C 778.5,637.5 778.5,608.5 778.5,579.5 Z"/></g>
<g><path style="opacity:1" fill="#f1f5f5" d="M 890.5,579.5 C 901.838,579.333 913.172,579.5 924.5,580C 936.708,581.541 943.541,588.374 945,600.5C 945.333,617.5 945.667,634.5 946,651.5C 948.196,654.125 951.03,655.125 954.5,654.5C 954.5,658.5 954.5,662.5 954.5,666.5C 950.154,666.666 945.821,666.499 941.5,666C 938.898,665.117 936.731,663.617 935,661.5C 933.048,663.894 930.548,665.394 927.5,666C 918.833,666.667 910.167,666.667 901.5,666C 892.769,665.392 887.269,660.892 885,652.5C 884.333,644.833 884.333,637.167 885,629.5C 887.281,620.219 893.114,614.719 902.5,613C 911.827,612.5 921.161,612.334 930.5,612.5C 930.666,607.821 930.499,603.155 930,598.5C 927.9,595.533 925.066,593.7 921.5,593C 911.172,592.5 900.839,592.334 890.5,592.5C 890.5,588.167 890.5,583.833 890.5,579.5 Z"/></g>
<g><path style="opacity:1" fill="#f2f6f6" d="M 987.5,579.5 C 992.167,579.5 996.833,579.5 1001.5,579.5C 1001.34,580.873 1001.51,582.207 1002,583.5C 1004.19,581.765 1006.69,580.598 1009.5,580C 1018.21,579.248 1026.87,579.581 1035.5,581C 1043.64,584.137 1048.47,589.97 1050,598.5C 1050.5,621.164 1050.67,643.831 1050.5,666.5C 1045.83,666.5 1041.17,666.5 1036.5,666.5C 1036.95,643.789 1036.45,621.122 1035,598.5C 1034.17,596.333 1032.67,594.833 1030.5,594C 1023.25,592.443 1015.91,592.11 1008.5,593C 1006,594.167 1004.17,596 1003,598.5C 1002.5,621.164 1002.33,643.831 1002.5,666.5C 997.5,666.5 992.5,666.5 987.5,666.5C 987.5,637.5 987.5,608.5 987.5,579.5 Z"/></g>
<g><path style="opacity:1" fill="#5ea0a2" d="M 505.5,592.5 C 512.906,592.152 520.239,592.652 527.5,594C 529.333,595.167 530.833,596.667 532,598.5C 533.584,613.787 533.918,629.121 533,644.5C 532.496,648.02 530.663,650.52 527.5,652C 518.234,653.386 508.9,653.886 499.5,653.5C 499.333,635.164 499.5,616.83 500,598.5C 501.36,595.977 503.193,593.977 505.5,592.5 Z"/></g>
<g><path style="opacity:1" fill="#5da0a2" d="M 606.5,592.5 C 612.509,592.334 618.509,592.501 624.5,593C 627.583,593.786 629.749,595.619 631,598.5C 631.499,604.491 631.666,610.491 631.5,616.5C 621.167,616.5 610.833,616.5 600.5,616.5C 600.334,610.491 600.501,604.491 601,598.5C 602.36,595.977 604.193,593.977 606.5,592.5 Z"/></g>
<g><path style="opacity:1" fill="#5ea0a2" d="M 905.5,625.5 C 913.833,625.5 922.167,625.5 930.5,625.5C 930.941,634.276 930.441,642.942 929,651.5C 927.933,652.191 926.766,652.691 925.5,653C 918.167,653.667 910.833,653.667 903.5,653C 901.333,652.167 899.833,650.667 899,648.5C 898.333,643.167 898.333,637.833 899,632.5C 900.694,629.642 902.861,627.309 905.5,625.5 Z"/></g>
</svg>
